<svg version="1.2" baseProfile="tiny-ps" xmlns="http://www.w3.org/2000/svg" viewBox="0 0 57 16" width="57" height="16">
	<title>Capa 1</title>
	<style>
		tspan { white-space:pre }
		.shp0 { fill: #69a268 } 
	</style>
	<g id="Capa 1">
		<path id="&lt;Path&gt;" class="shp0" d="M1.69 1.36C1.91 0.89 2.59 0.71 4.52 0.89C6.45 1.07 5.37 1.25 7.16 1.47C8.96 1.69 14.93 1.36 18.39 1.07C21.85 0.78 29.3 1.25 31.55 1.04C34.97 0.7 46.57 1.47 47.6 1.47C55.99 1.47 50.79 2.03 51.24 1.99C51.69 1.96 53.41 2.07 53.95 2.12C54.49 2.17 54.52 2.79 54.75 2.46C54.99 2.14 55.28 2.12 55.34 2.52C55.39 2.91 55.52 4.43 55.71 5.51C55.89 6.6 56.08 7.57 56.26 8.33C56.57 9.6 55.96 6.93 56.6 10.86C56.79 11.99 56.5 12.7 56.55 14.18C56.6 15.66 55.86 14.72 55.18 14.69C54.49 14.65 53.06 14.43 52.32 14.58C51.83 14.67 50.92 14.83 49.59 15.05C49.27 15.19 48.93 15.29 48.57 15.34C48.05 15.41 48.05 15.48 47.57 15.84C47.1 16.2 47.57 15.59 47.57 15.24C47.57 14.9 47.41 14.94 47.09 14.81C46.78 14.69 46.09 14.63 45.31 14.61C44.53 14.59 44.52 14.85 44.8 15.3C45.07 15.75 45.81 15.43 45.65 15.7C45.5 15.97 42.43 15.46 41.24 15.46C40.45 15.46 39.73 15.28 39.08 14.92C37.84 15.16 36.61 15.41 35.38 15.68C33.53 16.07 34.29 15.64 33.42 15.06C32.55 14.49 31.44 14.99 30.07 14.88C28.69 14.77 27.58 14.96 26.77 15.21C25.95 15.46 25.6 15.32 24.76 14.88C23.91 14.45 22.35 14.7 21.19 14.77C20.03 14.85 14.88 14.79 14.6 15.24C14.32 15.69 13.99 15.3 13.29 14.92C12.59 14.54 7.88 15.42 7.35 15.57C6.82 15.71 6.56 15.73 6.62 15.32C6.69 14.9 6.17 15.12 5.66 15.21C5.14 15.3 4.88 14.97 4.61 14.74C4.35 14.5 4.21 14.83 3.69 15.26C3.18 15.69 3.17 15.33 3.19 15.12C3.2 14.9 2.92 14.7 2.65 14.56C2.37 14.41 1.84 14.45 1.46 14.67C1.07 14.88 0.72 15.06 0.66 14.88C0.61 14.7 0.64 14.11 0.8 13.09C0.96 12.08 1.31 11.6 1.21 10.26C1.1 8.92 0.55 5.17 0.82 3.45C1.1 1.74 0.85 2.35 1.07 2.78C1.22 3.07 1.35 3.62 1.46 4.43C1.91 3.64 1.48 1.83 1.69 1.36Z" />
	</g>
</svg>