<svg width="28" height="31" viewBox="0 0 28 31" fill="none" xmlns="http://www.w3.org/2000/svg">
<path d="M4.09222 26.6534H21.6085L20.7719 23.9447L22.7731 25.6621L24.6071 27.3057L27.9485 30.098V3.65586C27.8649 2.01221 26.4498 0.615479 24.6956 0.615479L4.09836 0.619164C2.34538 0.619164 0.922852 2.01835 0.922852 3.662V23.6118C0.922852 25.3452 2.34293 26.6534 4.09222 26.6534ZM17.0498 7.59669L17.0092 7.61143L17.024 7.59669H17.0498ZM7.67557 9.15558C9.9273 7.51684 12.0144 7.59546 12.0144 7.59546L12.1827 7.7613C9.42733 8.41851 8.178 9.64941 8.178 9.64941C8.178 9.64941 8.51214 9.48603 9.09565 9.23665C12.8068 7.77727 16.8594 7.88292 20.611 9.73049C20.611 9.73049 19.3592 8.57944 16.7734 7.84238L17.0019 7.61757C17.3593 7.6188 19.2511 7.68514 21.2756 9.1654C21.2756 9.1654 23.5408 13.035 23.5408 17.789C23.4659 17.6981 22.1355 19.8356 18.7119 19.9093C18.7119 19.9093 18.132 19.2533 17.7193 18.6809C19.7216 18.106 20.471 16.9562 20.471 16.9562C19.8138 17.3701 19.2143 17.6158 18.7278 17.8615C17.9797 18.1907 17.2304 18.3529 16.4822 18.5187C12.9394 19.0936 10.9506 18.1318 9.07108 17.3689L8.42861 17.0421C8.42861 17.0421 9.17672 18.192 11.0992 18.7669C10.5943 19.343 10.0944 19.9978 10.0944 19.9978C6.67194 19.9167 5.42385 17.7792 5.42385 17.7792C5.42385 13.0178 7.67557 9.15558 7.67557 9.15558Z" fill="white"/>
</svg>
