<svg width="63" height="43" viewBox="0 0 63 43" fill="none" xmlns="http://www.w3.org/2000/svg">
<path d="M13.8801 34.3301C27.581 39.5258 39.2405 40.5378 52.4532 32.4506C52.3564 32.5918 49.7428 36.3543 42.8697 38.2826C44.3217 40.211 46.3062 42.4214 46.3062 42.4214C50.7108 42.4214 55.0185 41.1986 58.7453 38.847C61.6494 36.9656 63.295 33.7204 62.9562 30.3341C62.3754 24.5491 60.9716 18.9052 58.7937 13.4966C56.0348 6.44175 49.4039 1.55032 41.7081 0.844777C41.0305 0.797723 40.5465 0.797723 40.2561 0.797723L39.4818 1.55018C48.3392 3.99589 52.7437 7.80549 52.8405 7.94666C39.2397 1.26799 23.1706 1.17402 9.47293 7.66447C9.47293 7.66447 13.8291 3.47857 23.4608 1.26799L22.88 0.703613C21.8635 0.703613 20.8955 0.797722 19.8792 0.938746C12.7642 2.11455 6.81091 6.86482 4.24559 13.4023C2.0191 19.0462 0.567105 24.9723 0.0347294 30.9925C-0.25567 34.1907 1.29318 37.3419 4.00362 39.1762C7.58526 41.4808 11.8445 42.7036 16.1523 42.7036C16.1523 42.7036 17.8947 40.493 19.6372 38.5177C13.103 36.6364 10.441 32.8738 10.3926 32.7327L11.6223 33.3428C12.3574 33.7078 13.111 34.0385 13.8801 34.3301ZM21.4764 30.24C18.3303 30.1459 15.8619 27.5592 15.9587 24.455C16.0556 21.539 18.4756 19.1874 21.4764 19.0933C24.6226 19.1874 27.091 21.7741 26.9942 24.8783C26.8489 27.7945 24.4773 30.1461 21.4764 30.24ZM41.224 30.24C38.0779 30.1459 35.6095 27.5592 35.7063 24.455C35.8032 21.539 38.2232 19.1874 41.224 19.0933C44.3702 19.1874 46.8386 21.7741 46.7418 24.8783C46.6451 27.7945 44.2249 30.1461 41.224 30.24Z" fill="white"/>
</svg>
