<svg width="44" height="39" viewBox="0 0 44 39" fill="none" xmlns="http://www.w3.org/2000/svg">
<path d="M43.9974 5.21261C42.3508 5.98613 40.6048 6.49432 38.817 6.72039C40.7039 5.52265 42.1169 3.63744 42.793 1.41564C41.0214 2.53358 39.0826 3.32087 37.0608 3.74335C35.7022 2.19993 33.9017 1.17644 31.939 0.831928C29.9764 0.487419 27.9617 0.84119 26.2078 1.83826C24.454 2.83533 23.0593 4.41986 22.2405 6.34561C21.4217 8.27135 21.2247 10.4305 21.6801 12.4874C18.0894 12.297 14.5765 11.3068 11.3694 9.58095C8.16232 7.85508 5.3327 5.43216 3.06422 2.46944C1.91051 4.58064 1.55705 7.07935 2.07573 9.45748C2.59441 11.8356 3.94629 13.9146 5.85648 15.2718C4.4235 15.2236 3.02211 14.8123 1.76912 14.0722V14.1905C1.77011 16.4062 2.493 18.5532 3.81504 20.2669C5.13707 21.9807 6.97677 23.1556 9.02172 23.5921C7.69207 23.9747 6.29793 24.0312 4.94472 23.7572C5.51957 25.6611 6.63984 27.3266 8.14906 28.5214C9.65828 29.7161 11.4811 30.3803 13.3629 30.4212C9.58041 33.5744 4.7737 35.0025 0 34.3915C4.12656 37.2109 8.93045 38.7078 13.8369 38.703C17.2168 38.7278 20.5675 38.039 23.6946 36.6766C26.8217 35.3142 29.6628 33.3053 32.0527 30.7666C34.4427 28.2279 36.3339 25.21 37.6165 21.8883C38.8991 18.5666 39.5475 15.0073 39.5241 11.4171C39.5241 11.0044 39.5241 10.5916 39.4956 10.1789C41.262 8.82532 42.7873 7.14827 44 5.22637L43.9974 5.21261Z" fill="white"/>
</svg>
