<svg width="48" height="49" viewBox="0 0 48 49" fill="none" xmlns="http://www.w3.org/2000/svg">
<path fill-rule="evenodd" clip-rule="evenodd" d="M48 24.7036C48 37.9577 37.2541 48.7036 24 48.7036C10.7459 48.7036 0 37.9577 0 24.7036C0 11.4495 10.7459 0.703613 24 0.703613C37.2569 0.703613 48 11.4495 48 24.7036ZM11.8406 25.5101L11.9441 25.3474L18.1875 15.5805C18.2787 15.4374 18.4932 15.4523 18.5623 15.6076C19.6053 17.9452 20.5053 20.8523 20.0836 22.6622C19.9036 23.4068 19.4105 24.4154 18.8557 25.3474C18.7842 25.483 18.7053 25.6162 18.6215 25.7444C18.582 25.8036 18.5154 25.8381 18.4439 25.8381H12.023C11.8504 25.8381 11.7494 25.6507 11.8406 25.5101ZM39.6693 28.871V27.325C39.6693 27.182 39.5313 27.0784 39.3956 27.1179L32.0945 29.2286C32.055 29.2385 32.0205 29.2606 31.9934 29.2902C31.2113 30.1542 30.5466 30.7339 30.3707 30.8874L30.3586 30.8979C29.9049 31.2826 29.3427 31.4922 28.7509 31.4922H26.1076V28.7971H28.2084C28.2627 28.7971 28.3145 28.7773 28.3539 28.7428L28.6251 28.4938C28.741 28.3877 28.8791 28.2595 29.0443 28.0943C29.0582 28.0804 29.0723 28.0664 29.0866 28.0522C29.1735 27.9656 29.2664 27.873 29.3575 27.7713C29.466 27.6653 29.572 27.5469 29.6706 27.431C29.8359 27.2535 29.9937 27.0685 30.1588 26.8738C30.2772 26.7456 30.3857 26.6001 30.4917 26.4546C30.6101 26.3165 30.726 26.1612 30.8345 26.0132C30.8747 25.9542 30.9174 25.8945 30.9611 25.8336C31.0031 25.7748 31.0461 25.7149 31.0884 25.6532C31.1674 25.5348 31.2463 25.4091 31.3128 25.2907C31.52 24.9702 31.6951 24.6274 31.843 24.2847C31.9108 24.1381 31.965 23.9838 32.0177 23.8338C32.0244 23.8147 32.0311 23.7957 32.0378 23.7768C32.097 23.6017 32.1463 23.4365 32.1833 23.2614C32.272 22.8496 32.2917 22.4403 32.2523 22.031C32.2424 21.9028 32.2325 21.777 32.203 21.6586V21.6389C32.1931 21.5551 32.1734 21.4614 32.1463 21.3751C32.0575 20.9756 31.9194 20.5762 31.7443 20.1841C31.6852 20.0386 31.6161 19.8907 31.5496 19.755C31.3917 19.4617 31.2265 19.1682 31.0392 18.8846C31.0015 18.8247 30.9599 18.7639 30.9184 18.7033C30.8865 18.6567 30.8546 18.6102 30.8246 18.5641C30.7058 18.3809 30.5723 18.2043 30.4427 18.0329C30.4136 17.9944 30.3846 17.9561 30.3561 17.9181C30.2796 17.8177 30.1959 17.7173 30.1117 17.6162C30.0656 17.5609 30.0193 17.5054 29.9739 17.4496C29.8457 17.2942 29.72 17.1462 29.5917 17.0008C29.1331 16.483 28.6523 16.0145 28.2232 15.615C28.1443 15.5361 28.058 15.4572 27.9692 15.3807C27.6363 15.0775 27.3331 14.8137 27.0791 14.609C27.0026 14.5501 26.934 14.4921 26.8701 14.4382C26.827 14.4017 26.786 14.3671 26.7462 14.3353C26.668 14.277 26.6003 14.2254 26.5436 14.1823C26.5092 14.156 26.4789 14.1329 26.4528 14.1133C26.4331 14.0986 26.4109 14.0887 26.3887 14.0813L26.1076 14.0024V11.6747C26.1076 11.295 25.9547 10.9547 25.7106 10.7057C25.4665 10.4566 25.1262 10.3037 24.7514 10.3037C24.0018 10.3037 23.3952 10.9177 23.3952 11.6747V13.2429L23.2547 13.2035L22.8725 13.095L22.5248 12.9988C22.5238 12.9988 22.5228 12.9984 22.5216 12.9979C22.5199 12.9972 22.5178 12.9964 22.5149 12.9964H22.5075L19.8691 12.2813C19.7533 12.2492 19.6546 12.375 19.7138 12.481L20.1355 13.2602C20.1594 13.3202 20.1898 13.3802 20.2211 13.4418C20.2412 13.4815 20.2616 13.5219 20.281 13.5635C20.35 13.7016 20.4191 13.847 20.4856 13.9925C20.5448 14.1208 20.604 14.2465 20.673 14.3846C20.7021 14.4496 20.7317 14.5154 20.7618 14.5822C20.8719 14.8268 20.9877 15.084 21.102 15.3611L21.103 15.3633C21.2013 15.5968 21.2996 15.8303 21.3856 16.0737C21.6223 16.6876 21.8467 17.3435 22.0415 18.0167C22.09 18.1672 22.1287 18.3128 22.1679 18.4604C22.1846 18.5232 22.2014 18.5864 22.2191 18.6504L22.2461 18.7687C22.3251 19.0819 22.3941 19.3926 22.4434 19.7058C22.4829 19.9203 22.5199 20.1249 22.5396 20.3321C22.5692 20.5663 22.5988 20.8005 22.6087 21.0348C22.6284 21.2493 22.6383 21.4737 22.6383 21.6882C22.6383 22.2356 22.5889 22.7633 22.473 23.2614C22.4658 23.288 22.4586 23.315 22.4513 23.3421C22.4188 23.4635 22.3851 23.5893 22.3448 23.7102C22.3083 23.8399 22.2609 23.9696 22.2117 24.1043C22.1945 24.1514 22.1771 24.1991 22.1599 24.2477C22.157 24.2553 22.1542 24.2629 22.1514 24.2706C22.1147 24.3693 22.0774 24.4699 22.0316 24.5683C21.7875 25.1551 21.4842 25.7395 21.1711 26.2869C20.7124 27.0981 20.2514 27.8108 19.9283 28.2694C19.9087 28.2989 19.8895 28.3269 19.871 28.3539C19.8478 28.3879 19.8257 28.4203 19.8051 28.4518C19.704 28.5949 19.8075 28.7971 19.9826 28.7971H23.3952V31.4922H19.9432C19.016 31.4922 18.1579 30.9669 17.7436 30.1261C17.5291 29.7045 17.4453 29.2409 17.4946 28.7872C17.5069 28.6516 17.4058 28.5234 17.2677 28.5234H10.2946C10.1762 28.5234 10.08 28.6195 10.08 28.7379V28.8809C10.08 33.3292 13.6727 36.9341 18.1061 36.9341H30.615C32.9598 36.9341 34.2912 34.7974 35.5999 32.6972C35.9647 32.1118 36.3277 31.5292 36.7104 30.9965C37.3984 30.0398 39.0529 29.2804 39.5362 29.0732C39.6151 29.0387 39.6693 28.9598 39.6693 28.871Z" fill="white"/>
</svg>
