<svg width="436" height="254" viewBox="0 0 436 254" fill="none" xmlns="http://www.w3.org/2000/svg">
<path d="M211.063 148.532C197.787 140.824 185.361 133.544 172.936 126.264C168.085 123.437 163.149 120.525 158.298 117.613C154.043 115.043 152 111.446 152 106.307C152.17 94.4875 152.17 82.668 152 70.8483C152 65.6238 154.213 61.9408 158.638 59.3713C170.128 52.6908 181.617 46.0101 193.106 39.2437C194.979 38.1304 196.34 38.1304 198.127 39.2437C201.702 41.4707 205.361 43.5263 209.361 45.8386C201.361 50.5495 193.702 55.0888 185.957 59.5427C180.511 62.7973 174.979 65.9662 169.447 69.1354C166.979 70.5058 165.787 72.39 165.872 75.3022C165.957 84.124 165.957 92.9458 165.872 101.853C165.787 104.937 167.149 106.821 169.787 108.277C182.553 115.643 195.234 123.18 208 130.46C210.468 131.831 211.404 133.372 211.234 136.199C210.893 140.053 211.063 143.907 211.063 148.532Z" fill="#FFB800"/>
<path d="M273.787 30.8502C281.531 33.7624 284.85 39.0726 284.425 47.6375C283.914 58.4294 284.255 69.3068 284.34 80.0987C284.34 84.9808 282.552 88.6635 278.382 91.1473C261.191 101.254 243.914 111.361 226.723 121.382C226.468 121.467 226.213 121.467 225.361 121.467C225.361 116.671 225.361 111.96 225.361 107.164C225.361 105.194 227.234 104.766 228.51 104.081C240.936 96.7147 253.446 89.4344 265.957 82.2398C267.659 81.212 269.361 80.2699 270.467 78.4713C271.489 77.1865 270.893 75.7305 270.893 74.3601C270.978 61.0846 270.978 47.8944 270.893 34.619C270.723 32.4777 271.063 30.7647 273.787 30.8502Z" fill="white"/>
<path d="M152.086 52.691C152.086 49.9502 152.256 47.8091 152.086 45.6678C151.575 39.4155 154.299 35.2186 159.746 32.1352C169.363 26.7392 178.894 21.0865 188.341 15.348C193.192 12.4359 197.873 12.3502 202.724 15.2623C213.788 21.7717 224.937 28.3667 236.086 34.7904C238.298 36.0752 239.32 37.5311 239.149 40.1864C238.894 44.1261 239.064 48.1516 239.064 52.7767C230.894 48.0661 223.149 43.6122 215.405 39.0728C210.384 36.1607 205.277 33.3342 200.426 30.1653C197.022 27.9385 194.213 28.024 190.724 30.1653C178.639 37.5311 166.384 44.5543 154.129 51.7489C153.618 52.0058 153.107 52.2628 152.086 52.691Z" fill="white"/>
<path d="M248.085 33.5055C247.149 31.2786 245.277 30.0796 243.32 28.9661C230.469 21.5146 217.703 13.9775 204.852 6.44032C214.384 -1.61072 218.724 -1.86767 228.937 4.29908C237.532 9.52369 246.213 14.4914 254.894 19.6303C257.872 21.4289 260.511 23.4846 260.936 27.2532C260.936 42.9269 261.021 58.6008 260.936 74.2746C257.702 77.1867 253.702 78.9854 249.873 80.9553C248 80.0132 248.681 78.2145 248.681 76.7583C248.596 63.6541 248.681 50.5497 248.596 37.5309C248.681 36.2462 249.362 34.7045 248.085 33.5055Z" fill="#FFB800"/>
<path d="M225.275 148.704C225.275 143.308 225.275 138.94 225.275 134.572C225.275 133.116 225.701 132.259 226.978 131.488C245.871 120.439 264.765 109.391 284.084 98.085C284.084 102.282 284.254 105.879 283.998 109.476C283.828 112.474 282.296 114.958 279.743 116.5C261.871 127.12 243.999 137.655 225.275 148.704Z" fill="#FFB800"/>
<path d="M174.808 88.4064C174.808 88.1494 174.808 87.8068 174.808 87.5498C174.808 75.2164 174.808 75.3019 185.957 69.8205C188.17 68.707 188.595 69.2209 188.51 71.4479C188.425 77.272 188.68 83.1817 188.425 89.006C188.255 92.0892 189.446 93.6309 191.999 95.0014C197.617 97.999 202.978 101.425 208.595 104.594C210.382 105.622 211.319 106.735 211.148 108.962C210.978 112.559 211.063 116.071 211.148 119.668C211.148 121.895 210.468 121.981 208.68 120.953C198.212 114.786 187.659 108.62 177.106 102.538C175.489 101.596 174.723 100.397 174.808 98.4274C174.893 95.0014 174.808 91.661 174.808 88.4064Z" fill="white"/>
<path d="M16.0097 212.664V252.704H25.0397V212.664H38.6197V204.474H2.42973V212.664H16.0097ZM76.8267 224.704H57.5067V204.474H48.6167V252.704H57.5067V232.754H76.8267V252.704H85.8567V204.474H76.8267V224.704ZM130.424 252.704V244.724H108.794V232.894H127.134V224.984H108.794V212.454H129.724V204.474H99.9038V252.704H130.424ZM180.156 212.664C184.286 212.664 187.436 214.204 189.606 217.214C191.846 220.224 192.966 224.074 192.966 228.694C192.966 233.244 191.846 237.024 189.606 240.034C187.436 243.044 184.286 244.514 180.156 244.514H170.286V212.664H180.156ZM180.156 252.704C186.876 252.704 192.196 250.464 196.046 245.984C199.966 241.434 201.926 235.694 201.926 228.694C201.926 221.624 199.966 215.884 196.046 211.334C192.196 206.784 186.876 204.474 180.156 204.474H161.326V252.704H180.156ZM243.816 252.704V244.724H222.186V232.894H240.526V224.984H222.186V212.454H243.116V204.474H213.296V252.704H243.816ZM293.596 211.264C289.046 206.364 283.166 203.914 276.096 203.914C269.236 203.914 263.426 206.364 258.666 211.194C253.906 216.024 251.526 221.834 251.526 228.694C251.526 235.484 253.906 241.364 258.666 246.194C263.426 251.024 269.236 253.404 276.096 253.404C290.446 253.404 299.406 244.864 299.406 227.784H275.886V235.134H289.116C289.046 238.074 287.646 240.454 285.056 242.344C282.466 244.234 279.526 245.144 276.096 245.144C271.686 245.144 267.976 243.534 264.966 240.314C261.956 237.094 260.486 233.244 260.486 228.694C260.486 224.144 261.956 220.294 264.966 217.144C267.976 213.924 271.686 212.314 276.096 212.314C280.366 212.314 284.006 213.854 287.016 217.004L293.596 211.264ZM339.896 252.704V244.724H318.266V232.894H336.606V224.984H318.266V212.454H339.196V204.474H309.376V252.704H339.896ZM378.175 204.474V235.834L359.765 204.474H351.435V252.704H360.325V220.994L378.945 252.704H387.135V204.474H378.175ZM398.35 238.634C398.35 242.834 399.96 246.334 403.18 249.204C406.4 252.074 410.53 253.474 415.64 253.474C420.26 253.474 424.18 252.284 427.4 249.834C430.69 247.384 432.37 244.024 432.58 239.824C433.07 233.384 429.43 227.854 419.42 225.124L413.47 223.374C409.62 222.324 407.73 220.504 407.73 217.844C407.73 214.484 410.81 212.174 414.94 212.174C419.42 212.174 422.15 214.624 422.15 218.474H431.11C431.11 214.064 429.57 210.494 426.56 207.904C423.55 205.244 419.77 203.914 415.08 203.914C410.53 203.914 406.68 205.244 403.53 207.904C400.38 210.494 398.84 213.924 398.84 218.054C398.84 224.634 402.9 229.114 411.02 231.494L416.97 233.034C421.66 234.364 423.83 236.464 423.62 239.614C423.41 242.974 420.33 245.424 415.64 245.424C410.67 245.424 407.52 242.344 407.31 238.634H398.35Z" fill="white"/>
</svg>
