<svg width="34" height="39" viewBox="0 0 34 39" fill="none" xmlns="http://www.w3.org/2000/svg">
<path d="M22.5783 18.2198C22.5469 18.6001 22.4048 18.9631 22.1696 19.2643C21.9344 19.5655 21.6162 19.7919 21.2539 19.9159C20.8916 20.0399 20.5009 20.056 20.1296 19.9624C19.7582 19.8687 19.4223 19.6693 19.1628 19.3885C18.9034 19.1077 18.7317 18.7577 18.6688 18.3813C18.6058 18.0048 18.6543 17.6183 18.8083 17.2689C18.9624 16.9195 19.2152 16.6223 19.536 16.4138C19.8569 16.2052 20.2317 16.0943 20.6148 16.0946C21.7096 16.1409 22.5783 17.0366 22.5783 18.1336L22.5767 18.223V18.2182L22.5783 18.2198ZM13.5959 16.0962C13.0646 16.1455 12.5707 16.3903 12.2109 16.783C11.8511 17.1756 11.6512 17.6877 11.6502 18.2193C11.6492 18.751 11.8472 19.2638 12.2055 19.6578C12.5638 20.0518 13.0567 20.2985 13.5879 20.3498H13.5959C14.1241 20.3279 14.6233 20.1035 14.9892 19.7235C15.3552 19.3436 15.5595 18.8374 15.5594 18.3108L15.5578 18.2214V18.2262L15.561 18.1192C15.561 17.0255 14.6939 16.1345 13.6072 16.093H13.604L13.5959 16.0962ZM33.9104 3.96458V38.338C29.065 34.0717 30.6134 35.4847 24.9858 30.2715L26.0052 33.8162H4.19203C3.14553 33.8132 2.14288 33.3971 1.40379 32.6591C0.664695 31.9211 0.249443 30.9212 0.249023 29.8788V3.955C0.249019 2.91267 0.663915 1.91286 1.40275 1.17477C2.14159 0.436677 3.14407 0.0205369 4.19043 0.0175781H29.9658C31.0123 0.020536 32.015 0.436625 32.7541 1.17467C33.4932 1.91271 33.9084 2.91252 33.9088 3.955V3.96458H33.9104ZM28.4287 22.1285C28.3711 18.1897 27.4001 14.3175 25.5917 10.8144L25.659 10.9581C24.1185 9.74648 22.237 9.04377 20.2766 8.94783L20.2542 8.94624L19.9849 9.2528C21.8282 9.75096 23.431 10.5892 24.7967 11.7037L24.7742 11.6861C22.3942 10.3976 19.7268 9.7266 17.018 9.735C14.625 9.735 12.3521 10.2475 10.3037 11.1688L10.4063 11.1273C9.69461 11.453 9.27146 11.6861 9.27146 11.6861C10.7258 10.5053 12.4217 9.65517 14.2403 9.19532L14.3301 9.17616L14.1377 8.94624C12.1617 9.04107 10.265 9.74958 8.71367 10.9724L8.7329 10.9581C7.0467 14.2089 6.0305 18.0425 5.96318 22.1061V22.1285C6.62759 23.0569 7.51114 23.8082 8.53588 24.3161C9.56063 24.8239 10.6951 25.0729 11.8392 25.0408H11.8296C11.8296 25.0408 12.5413 24.1786 13.1183 23.4505C11.7734 23.1104 10.5882 22.3172 9.76353 21.2056L9.75231 21.1896C10.0344 21.3876 10.5024 21.6431 10.5377 21.6686C12.5942 22.7939 14.9041 23.3802 17.2504 23.3723C19.0987 23.3746 20.9292 23.012 22.636 22.3057L22.543 22.3392C23.3894 22.0167 24.117 21.6367 24.7934 21.1848L24.7534 21.2104C23.908 22.3428 22.6928 23.1463 21.3169 23.4824L21.2752 23.4904C21.8522 24.2185 22.5446 25.0424 22.5446 25.0424L22.7226 25.044C23.8339 25.045 24.9295 24.7831 25.9193 24.2799C26.9091 23.7766 27.7648 23.0463 28.4159 22.1492L28.4303 22.1285H28.4287Z" fill="white"/>
</svg>
