<svg width="159" height="141" viewBox="0 0 159 141" fill="none" xmlns="http://www.w3.org/2000/svg">
<g opacity="0.1">
<path d="M150.811 0H101.249C96.7494 0 93.0975 3.65193 93.0975 8.15163V57.7136C93.0975 62.2134 96.7494 65.8652 101.249 65.8652H124.97C124.661 78.8428 121.644 89.2278 115.938 97.037C111.439 103.2 104.624 108.303 95.5104 112.33C91.3204 114.172 89.5108 119.128 91.4672 123.269L97.3363 135.66C99.2275 139.637 103.907 141.382 107.95 139.637C118.743 134.975 127.856 129.073 135.29 121.9C144.355 113.145 150.566 103.265 153.925 92.2439C157.284 81.2229 158.963 66.1913 158.963 47.1164V8.15163C158.963 3.65209 155.311 0 150.811 0Z" fill="#FFB800"/>
<path d="M17.2875 139.605C27.9498 134.958 37.0145 129.057 44.4977 121.9C53.6438 113.145 59.8879 103.298 63.2464 92.358C66.6049 81.4185 68.284 66.338 68.284 47.1164V8.15163C68.284 3.65193 64.6322 0 60.1323 0H10.5704C6.0707 0 2.41877 3.65193 2.41877 8.15163V57.7136C2.41877 62.2134 6.0707 65.8652 10.5704 65.8652H34.2917C33.9819 78.8428 30.9658 89.2278 25.2596 97.037C20.7599 103.2 13.9452 108.303 4.83165 112.33C0.641713 114.172 -1.16795 119.128 0.788442 123.269L6.64131 135.627C8.53266 139.605 13.2443 141.366 17.2875 139.605Z" fill="#FFB800"/>
</g>
</svg>
