<svg width="159" height="141" viewBox="0 0 159 141" fill="none" xmlns="http://www.w3.org/2000/svg">
<g opacity="0.1">
<path d="M8.15186 0H57.7138C62.2135 0 65.8654 3.65193 65.8654 8.15163V57.7136C65.8654 62.2134 62.2135 65.8652 57.7138 65.8652H33.9925C34.3023 78.8428 37.3184 89.2278 43.0245 97.037C47.5242 103.2 54.3388 108.303 63.4525 112.33C67.6425 114.172 69.4521 119.128 67.4957 123.269L61.6266 135.66C59.7354 139.637 55.0563 141.382 51.0131 139.637C40.2204 134.975 31.1067 129.073 23.6726 121.9C14.6078 113.145 8.39641 103.265 5.03793 92.2439C1.6793 81.2229 0.000221252 66.1913 0.000221252 47.1164V8.15163C0.000221252 3.65209 3.65231 0 8.15186 0Z" fill="#FFB800"/>
<path d="M141.675 139.605C131.013 134.958 121.948 129.057 114.465 121.9C105.319 113.145 99.0749 103.298 95.7165 92.358C92.358 81.4185 90.6789 66.338 90.6789 47.1164V8.15163C90.6789 3.65193 94.3307 0 98.8306 0H148.392C152.892 0 156.544 3.65193 156.544 8.15163V57.7136C156.544 62.2134 152.892 65.8652 148.392 65.8652H124.671C124.981 78.8428 127.997 89.2278 133.703 97.037C138.203 103.2 145.018 108.303 154.131 112.33C158.321 114.172 160.131 119.128 158.174 123.269L152.322 135.627C150.43 139.605 145.719 141.366 141.675 139.605Z" fill="#FFB800"/>
</g>
</svg>
