<svg width="57" height="64" viewBox="0 0 57 64" fill="none" xmlns="http://www.w3.org/2000/svg">
<g clip-path="url(#clip0)">
<path d="M25.4229 63.9263C19.7082 60.6083 14.3599 57.4747 9.01157 54.3411C6.92352 53.1245 4.79884 51.871 2.7108 50.6176C0.879177 49.5116 0 47.9632 0 45.7512C0.0732648 40.6636 0.0732648 35.5761 0 30.4885C0 28.2397 0.952442 26.6544 2.85733 25.5484C7.8027 22.6729 12.7481 19.7973 17.6934 16.8848C18.4994 16.4056 19.0855 16.4056 19.8548 16.8848C21.3933 17.8434 22.9685 18.7282 24.6902 19.7235C21.2468 21.7512 17.9499 23.7051 14.6163 25.6222C12.2719 27.0231 9.89075 28.3871 7.50964 29.7512C6.4473 30.3411 5.93445 31.1521 5.97108 32.4056C6.00771 36.2028 6.00771 40 5.97108 43.8341C5.93445 45.1613 6.52057 45.9724 7.65617 46.5991C13.151 49.7696 18.6093 53.0139 24.1041 56.1475C25.1665 56.7374 25.5694 57.401 25.4961 58.6176C25.3496 60.2765 25.4229 61.9355 25.4229 63.9263Z" fill="#FFB800"/>
<path d="M52.421 13.2718C55.7545 14.5253 57.1832 16.811 57 20.4976C56.7802 25.1428 56.9268 29.8248 56.9634 34.47C56.9634 36.5714 56.1941 38.1566 54.3991 39.2257C46.9994 43.576 39.563 47.9262 32.1633 52.2396C32.0534 52.2764 31.9435 52.2764 31.5771 52.2764C31.5771 50.2119 31.5771 48.1843 31.5771 46.1198C31.5771 45.2718 32.3831 45.0875 32.9325 44.7926C38.2809 41.6221 43.6658 38.4884 49.0508 35.3916C49.7834 34.9492 50.5161 34.5437 50.9923 33.7695C51.4319 33.2165 51.1755 32.5898 51.1755 31.9999C51.2121 26.2857 51.2121 20.6082 51.1755 14.894C51.1022 13.9723 51.2487 13.235 52.421 13.2718Z" fill="white"/>
<path d="M0.0368796 22.6728C0.0368796 21.4931 0.110144 20.5715 0.0368796 19.6498C-0.182915 16.9586 0.989322 15.1521 3.3338 13.8249C7.47326 11.5023 11.5761 9.06916 15.6423 6.59911C17.7303 5.34565 19.7451 5.30879 21.8332 6.56224C26.5954 9.36409 31.3942 12.2028 36.1931 14.9678C37.1455 15.5208 37.5851 16.1475 37.5118 17.2904C37.4019 18.9862 37.4752 20.7189 37.4752 22.7097C33.9585 20.6821 30.6249 18.765 27.2914 16.8111C25.1301 15.5576 22.9321 14.341 20.8441 12.977C19.3788 12.0185 18.1699 12.0553 16.668 12.977C11.4662 16.1475 6.19112 19.1705 0.916057 22.2673C0.696263 22.3779 0.476468 22.4885 0.0368796 22.6728Z" fill="white"/>
<path d="M41.3583 14.4148C40.9553 13.4563 40.1494 12.9402 39.3069 12.4609C33.7754 9.25353 28.2805 6.00929 22.749 2.76505C26.8519 -0.70039 28.7201 -0.810989 33.116 1.84339C36.8159 4.09224 40.5524 6.23049 44.2889 8.44247C45.571 9.21666 46.7066 10.1015 46.8898 11.7236C46.8898 18.4701 46.9264 25.2167 46.8898 31.9632C45.4977 33.2167 43.776 33.9909 42.1276 34.8388C41.3216 34.4333 41.6147 33.6591 41.6147 33.0323C41.5781 27.3918 41.6147 21.7512 41.5781 16.1475C41.6147 15.5945 41.9078 14.9309 41.3583 14.4148Z" fill="#FFB800"/>
<path d="M31.54 63.9999C31.54 61.6774 31.54 59.7972 31.54 57.917C31.54 57.2903 31.7232 56.9216 32.2727 56.5898C40.4051 51.834 48.5375 47.0783 56.853 42.2119C56.853 44.0184 56.9263 45.5668 56.8164 47.1151C56.7431 48.4055 56.0837 49.4746 54.9848 50.1382C47.292 54.7096 39.5992 59.2442 31.54 63.9999Z" fill="#FFB800"/>
<path d="M9.8172 38.046C9.8172 37.9354 9.8172 37.7879 9.8172 37.6773C9.8172 32.3686 9.8172 32.4054 14.616 30.046C15.5685 29.5667 15.7516 29.7879 15.715 30.7465C15.6784 33.2534 15.7883 35.7971 15.6784 38.3041C15.6051 39.6312 16.118 40.2948 17.2169 40.8847C19.6347 42.175 21.9425 43.6497 24.3603 45.0137C25.1295 45.4561 25.5325 45.9354 25.4592 46.8939C25.386 48.4423 25.4226 49.9538 25.4592 51.5022C25.4592 52.4607 25.1662 52.4976 24.3969 52.0552C19.8911 49.4008 15.3487 46.7465 10.8063 44.1289C10.1103 43.7234 9.78057 43.2073 9.8172 42.3594C9.85383 40.8847 9.8172 39.4469 9.8172 38.046Z" fill="white"/>
<path d="M46.8898 31.9633C46.4502 31.5946 46.5601 31.0785 46.5601 30.5992C46.5601 24.7375 46.5601 18.9126 46.5601 13.0508C46.5601 12.5716 46.4502 12.0554 46.8898 11.6868C47.2194 12.4241 47.1462 13.2352 47.1462 14.0462C47.1462 19.5024 47.1462 24.9587 47.1462 30.378C47.1462 30.931 47.4026 31.5209 46.8898 31.9633Z" fill="#010101"/>
<path d="M52.4209 13.272C51.4684 13.6038 51.3219 14.3043 51.3219 15.2628C51.3585 21.3089 51.3585 27.3918 51.3585 33.4379C51.3585 33.5485 51.3585 33.696 51.2852 33.7697C51.2486 33.8066 51.1021 33.8066 50.9922 33.8066C50.9922 26.7282 50.9922 19.6499 50.9922 12.5347C51.6882 12.5347 51.7981 13.3826 52.4209 13.272Z" fill="#010101"/>
<path d="M41.3582 14.4148C42.3473 14.5623 41.7612 15.3365 41.7612 15.7051C41.7978 21.3825 41.7978 27.06 41.7978 32.7005C41.7978 33.4378 41.6879 34.1752 42.1275 34.8388C41.0285 35.6867 41.3216 34.6544 41.3216 34.1752C41.3216 29.6406 41.3216 25.1429 41.3216 20.6083C41.3216 18.5807 41.3582 16.5162 41.3582 14.4148Z" fill="#020202"/>
</g>
<defs>
<clipPath id="clip0">
<rect width="57" height="64" fill="white"/>
</clipPath>
</defs>
</svg>
