<svg width="1038" height="643" viewBox="0 0 1038 643" fill="none" xmlns="http://www.w3.org/2000/svg">
<path d="M18.4112 642.057L30.4453 631.714L370.545 339.276L519.256 467.142L667.957 339.276L1008.07 631.714L1019.59 641.622L1020.1 642.057L1033.23 626.779L1037.89 621.37L1033.23 617.366L1019.59 605.638L688.881 321.279L993.946 58.9806L1004.32 50.0613L1014.61 41.2013L1037.88 21.1972L1028.99 10.854L1020.09 0.510788L1008.07 10.854L994.134 22.8288L983.524 31.9557L972.696 41.2607L519.256 431.158L370.545 303.292L48.5014 26.3886L32.6405 12.7427L30.4453 10.854L18.4112 0.510788L7.89 12.7427L0.62207 21.1972L6.65396 26.3886L349.621 321.289L0.62207 621.37L18.4112 642.057Z" fill="#272727"/>
</svg>
