<svg width="67" height="67" viewBox="0 0 67 67" fill="none" xmlns="http://www.w3.org/2000/svg">
<path d="M33.5 0.8125C26.9955 0.8125 21.7227 6.00665 21.7227 12.4141C21.7227 18.8215 26.9955 24.0156 33.5 24.0156C40.0045 24.0156 45.2773 18.8215 45.2773 12.4141C45.2773 6.00665 40.0045 0.8125 33.5 0.8125ZM38.9067 10.5911L32.4296 16.9715C31.663 17.7267 30.4202 17.7267 29.6536 16.9715L26.8776 14.2371C26.111 13.4819 26.111 12.2577 26.8776 11.5026C27.6442 10.7474 28.8869 10.7474 29.6535 11.5026L31.0415 12.8699L36.1308 7.85658C36.8974 7.10145 38.1401 7.10145 38.9067 7.85658C39.6733 8.61171 39.6733 9.83594 38.9067 10.5911Z" fill="url(#paint0_linear_123_192)"/>
<path d="M3.92578 56.3726H1.96289C0.878852 56.3726 0 55.5068 0 54.439V29.9468C0 28.8789 0.878852 28.0132 1.96289 28.0132H3.92578C5.00982 28.0132 5.88867 28.8789 5.88867 29.9468V54.439C5.88867 55.5068 5.00982 56.3726 3.92578 56.3726Z" fill="url(#paint1_linear_123_192)"/>
<path d="M65.0371 56.3726H63.0742C61.9902 56.3726 61.1113 55.5068 61.1113 54.439V29.9468C61.1113 28.8789 61.9902 28.0132 63.0742 28.0132H65.0371C66.1211 28.0132 67 28.8789 67 29.9468V54.439C67 55.5068 66.1211 56.3726 65.0371 56.3726Z" fill="url(#paint2_linear_123_192)"/>
<path d="M47.7694 52.5906L38.6009 42.5191C37.7986 41.6378 36.49 41.408 35.4278 41.9619L26.8519 46.4341C25.5909 47.0918 24.1727 47.4394 22.7509 47.4394C19.5369 47.4394 16.5843 45.7137 15.0454 42.9358C12.7456 38.7841 14.2891 33.5378 18.4861 31.241L19.6734 30.5913H19.6733H9.81445V52.8921L26.0421 64.881C27.7681 66.1559 29.844 66.8124 31.9361 66.8124C33.0289 66.8124 34.1258 66.63 35.1796 66.266L44.4294 62.3128L46.9318 60.8229C48.1159 60.1179 48.9516 58.9593 49.229 57.624C49.2297 57.6205 49.2305 57.617 49.2311 57.6137C49.6032 55.8068 49.0566 53.929 47.7694 52.5906Z" fill="url(#paint3_linear_123_192)"/>
<path d="M28.2659 30.5913C27.9324 30.5913 27.6043 30.6751 27.3126 30.8347L20.3928 34.6217C18.0649 35.8957 17.216 38.7809 18.4917 41.0836C19.7627 43.378 22.6701 44.2395 25.0153 43.0166L32.6873 39.0156C35.8736 37.3539 39.7994 38.0434 42.2064 40.6875L50.661 49.9748C51.87 51.2479 52.6838 52.8061 53.0499 54.4664C54.4915 54.0774 55.8795 53.5046 57.1857 52.761V30.5913H28.2659Z" fill="url(#paint4_linear_123_192)"/>
<defs>
<linearGradient id="paint0_linear_123_192" x1="33.5" y1="0.8125" x2="33.5" y2="24.0156" gradientUnits="userSpaceOnUse">
<stop stop-color="#FFB800"/>
<stop offset="1" stop-color="#C68F00"/>
</linearGradient>
<linearGradient id="paint1_linear_123_192" x1="2.94434" y1="28.0132" x2="2.94434" y2="56.3726" gradientUnits="userSpaceOnUse">
<stop stop-color="#FFB800"/>
<stop offset="1" stop-color="#C68F00"/>
</linearGradient>
<linearGradient id="paint2_linear_123_192" x1="64.0557" y1="28.0132" x2="64.0557" y2="56.3726" gradientUnits="userSpaceOnUse">
<stop stop-color="#FFB800"/>
<stop offset="1" stop-color="#C68F00"/>
</linearGradient>
<linearGradient id="paint3_linear_123_192" x1="29.5801" y1="30.5913" x2="29.5801" y2="66.8124" gradientUnits="userSpaceOnUse">
<stop stop-color="#FFB800"/>
<stop offset="1" stop-color="#C68F00"/>
</linearGradient>
<linearGradient id="paint4_linear_123_192" x1="37.5421" y1="30.5913" x2="37.5421" y2="54.4664" gradientUnits="userSpaceOnUse">
<stop stop-color="#FFB800"/>
<stop offset="1" stop-color="#C68F00"/>
</linearGradient>
</defs>
</svg>
