<svg width="65" height="67" viewBox="0 0 65 67" fill="none" xmlns="http://www.w3.org/2000/svg">
<path d="M27.5831 32.7111C28.6282 34.5314 30.4656 35.6172 32.5 35.6172C34.5344 35.6172 36.3718 34.5314 37.4169 32.7111C37.7554 32.1164 38.3839 31.75 39.0608 31.75H42.0215V27.8828H39.0609C38.384 27.8828 37.7555 27.5165 37.417 26.9217C36.3718 25.1014 34.5344 24.0156 32.5 24.0156C30.4656 24.0156 28.6282 25.1014 27.5831 26.9217C27.2446 27.5165 26.6161 27.8828 25.9392 27.8828H22.9785V31.75H25.9391C26.616 31.75 27.2446 32.1164 27.5831 32.7111Z" fill="url(#paint0_linear_123_179)"/>
<path d="M32.5 47.2188C23.8502 47.2188 12.4307 48.5038 0 51.6279V61.0117C0 64.2104 2.56268 66.8125 5.71289 66.8125C9.3355 66.8125 12.304 65.3057 15.3093 63.7119C19.4043 61.5386 24.0423 59.0781 32.5 59.0781C40.9577 59.0781 45.5957 61.5386 49.6907 63.7119C52.696 65.3057 55.6645 66.8125 59.2871 66.8125C62.4373 66.8125 65 64.2104 65 61.0117V51.6276C52.4839 48.4856 41.0533 47.2188 32.5 47.2188Z" fill="url(#paint1_linear_123_179)"/>
<path d="M11.5527 45.2695V25.9491C11.5527 21.2693 13.0672 16.9517 15.5996 13.4355C6.33661 19.2255 0 29.586 0 41.4179V47.6416C2.97769 46.9024 6.08943 46.1819 11.5527 45.2695Z" fill="url(#paint2_linear_123_179)"/>
<path d="M53.4473 45.27C58.9027 46.1808 62.1046 46.9232 65 47.6416V41.4179C65 29.586 58.6634 19.2255 49.4004 13.4355C51.9329 16.9517 53.4473 21.2693 53.4473 25.9491V45.27Z" fill="url(#paint3_linear_123_179)"/>
<path d="M32.5 8.54688C23.0492 8.54688 15.3613 16.353 15.3613 25.9492V44.6839C20.4902 43.9532 26.5082 43.3516 32.5 43.3516C38.49 43.3516 44.5093 43.9539 49.6387 44.6847V25.9492C49.6387 16.353 41.9508 8.54688 32.5 8.54688ZM45.8301 33.6836C45.8301 34.7524 44.9783 35.6172 43.9258 35.6172H40.0763C38.2873 38.0266 35.4755 39.4844 32.5 39.4844C29.5245 39.4844 26.7127 38.0266 24.9237 35.6172H21.0742C20.0217 35.6172 19.1699 34.7524 19.1699 33.6836V25.9492C19.1699 24.8805 20.0217 24.0156 21.0742 24.0156H24.9237C26.7127 21.6062 29.5245 20.1484 32.5 20.1484C35.4755 20.1484 38.2873 21.6062 40.0763 24.0156H43.9258C44.9783 24.0156 45.8301 24.8805 45.8301 25.9492V33.6836Z" fill="url(#paint4_linear_123_179)"/>
<path d="M32.4997 4.68162C35.255 4.68162 36.7153 4.92989 37.9995 5.12918C37.3488 2.65186 35.1416 0.8125 32.4997 0.8125C29.8576 0.8125 27.6503 2.65212 27 5.12957C28.2214 4.94098 29.6264 4.68162 32.4997 4.68162Z" fill="url(#paint5_linear_123_179)"/>
<defs>
<linearGradient id="paint0_linear_123_179" x1="32.5" y1="24.0156" x2="32.5" y2="35.6172" gradientUnits="userSpaceOnUse">
<stop stop-color="#FFB800"/>
<stop offset="1" stop-color="#C68F00"/>
</linearGradient>
<linearGradient id="paint1_linear_123_179" x1="32.5" y1="47.2188" x2="32.5" y2="66.8125" gradientUnits="userSpaceOnUse">
<stop stop-color="#FFB800"/>
<stop offset="1" stop-color="#C68F00"/>
</linearGradient>
<linearGradient id="paint2_linear_123_179" x1="7.79981" y1="13.4355" x2="7.79981" y2="47.6416" gradientUnits="userSpaceOnUse">
<stop stop-color="#FFB800"/>
<stop offset="1" stop-color="#C68F00"/>
</linearGradient>
<linearGradient id="paint3_linear_123_179" x1="57.2002" y1="13.4355" x2="57.2002" y2="47.6416" gradientUnits="userSpaceOnUse">
<stop stop-color="#FFB800"/>
<stop offset="1" stop-color="#C68F00"/>
</linearGradient>
<linearGradient id="paint4_linear_123_179" x1="32.5" y1="8.54688" x2="32.5" y2="44.6847" gradientUnits="userSpaceOnUse">
<stop stop-color="#FFB800"/>
<stop offset="1" stop-color="#C68F00"/>
</linearGradient>
<linearGradient id="paint5_linear_123_179" x1="32.4997" y1="0.8125" x2="32.4997" y2="5.12957" gradientUnits="userSpaceOnUse">
<stop stop-color="#FFB800"/>
<stop offset="1" stop-color="#C68F00"/>
</linearGradient>
</defs>
</svg>
