<svg width="60" height="67" viewBox="0 0 60 67" fill="none" xmlns="http://www.w3.org/2000/svg">
<path d="M39.6318 20.75H19.8109C17.9642 20.75 16.4609 22.2309 16.4609 24.05V43.575C16.4609 45.3941 17.9642 46.875 19.8109 46.875H39.6318C41.4785 46.875 42.9818 45.3941 42.9818 43.575V24.05C42.9818 22.2309 41.4785 20.75 39.6318 20.75ZM29.5818 39.8625H26.7901C26.1734 39.8625 25.6734 39.37 25.6734 38.7625V35.4625C25.6734 35.1588 25.4234 34.9125 25.1151 34.9125H24.8739C24.279 34.9125 23.7597 34.47 23.7216 33.8852C23.6799 33.2445 24.1946 32.7125 24.8359 32.7125H25.1151C25.4234 32.7125 25.6734 32.4662 25.6734 32.1625V28.8625C25.6734 28.255 26.1734 27.7625 26.7901 27.7625H29.4729C32.9092 27.7625 35.7811 30.5326 35.7226 33.9171C35.6656 37.2048 32.9326 39.8625 29.5818 39.8625Z" fill="url(#paint0_linear_123_143)"/>
<path d="M33.4887 33.9287C33.4258 36.0229 31.6259 37.6624 29.4992 37.6624H28.4656C28.1572 37.6624 27.9072 37.4161 27.9072 37.1124V35.4624C27.9072 35.1587 28.1572 34.9124 28.4656 34.9124H28.7068C29.3017 34.9124 29.8209 34.4699 29.859 33.8851C29.9008 33.2444 29.3861 32.7124 28.7447 32.7124H28.4656C28.1572 32.7124 27.9072 32.4661 27.9072 32.1624V30.5124C27.9072 30.2087 28.1572 29.9624 28.4656 29.9624H29.5822C31.7766 29.9624 33.5542 31.7528 33.4887 33.9287Z" fill="url(#paint1_linear_123_143)"/>
<path d="M53.0322 28.4168V39.21C53.0322 39.8085 53.531 40.2793 54.1387 40.2787C54.8037 40.2782 55.2656 39.7821 55.2656 39.2101V28.417C55.2656 27.8283 54.7822 27.3471 54.1845 27.3488C54.1635 27.3488 54.1426 27.3488 54.1218 27.3487C53.5206 27.3452 53.0322 27.8245 53.0322 28.4168Z" fill="url(#paint2_linear_123_143)"/>
<path d="M36.6279 11.2336L46.12 16.63C46.6397 16.9255 47.3051 16.7501 47.6024 16.2366C47.9724 15.5978 47.7022 14.9894 47.2362 14.7245L37.7443 9.32808C37.2259 9.03342 36.5613 9.20667 36.2638 9.71817C35.8915 10.3581 36.1609 10.968 36.6279 11.2336Z" fill="url(#paint3_linear_123_143)"/>
<path d="M30.8378 50.1436V53.0954C30.8378 53.6865 30.3507 54.165 29.7506 54.1627C29.7292 54.1626 29.7078 54.1626 29.6863 54.1627C29.0884 54.1655 28.6045 53.6841 28.6045 53.0951V50.1436C28.6045 49.5536 29.0901 49.0752 29.689 49.0752C30.4233 49.0752 30.8378 49.6035 30.8378 50.1436Z" fill="url(#paint4_linear_123_143)"/>
<path d="M47.6291 43.9591C47.6183 43.9772 47.6077 43.9954 47.5971 44.0135C47.3004 44.5249 46.6357 44.6976 46.1177 44.4032L45.7582 44.1989C45.4224 44.008 45.2157 43.6559 45.2158 43.2739C45.2161 42.2995 46.1644 41.8898 46.8427 42.2757L47.2341 42.4983C47.7536 42.7939 47.9311 43.4485 47.6291 43.9591Z" fill="url(#paint5_linear_123_143)"/>
<path d="M30.8378 14.5304V17.4815C30.8378 18.0715 30.3522 18.5499 29.7533 18.5499C29.0189 18.5499 28.6045 18.0216 28.6045 17.4815V14.5304C28.6045 13.9325 29.1025 13.462 29.7094 13.4624C30.3831 13.463 30.8378 13.9646 30.8378 14.5304Z" fill="url(#paint6_linear_123_143)"/>
<path d="M45.2158 24.3496C45.216 23.9681 45.423 23.6166 45.7584 23.4258L46.1175 23.2217C46.6426 22.9231 47.3045 23.1121 47.608 23.6292C47.9438 24.2016 47.7325 24.8422 47.2334 25.1262L46.8427 25.3484C46.1629 25.7347 45.2154 25.3239 45.2158 24.3496Z" fill="url(#paint7_linear_123_143)"/>
<path d="M46.1192 50.9946L36.6271 56.391C36.1072 56.6867 35.9288 57.3423 36.2315 57.8528C36.6081 58.4876 37.2779 58.5612 37.7435 58.2964L47.2354 52.8999C47.754 52.6051 47.9341 51.9512 47.6328 51.4413C47.2567 50.8044 46.5861 50.7292 46.1192 50.9946Z" fill="url(#paint8_linear_123_143)"/>
<path d="M13.3238 16.6302L22.8159 11.2336C23.3358 10.9379 23.5142 10.2823 23.2115 9.77181C22.8349 9.13697 22.1652 9.06341 21.6995 9.32824L12.2076 14.7247C11.689 15.0195 11.5089 15.6734 11.8102 16.1833C12.1863 16.8203 12.8569 16.8955 13.3238 16.6302Z" fill="url(#paint9_linear_123_143)"/>
<path d="M4.17773 28.417V39.2101C4.17773 39.8079 4.67535 40.2792 5.28226 40.2787C5.95477 40.2783 6.41107 39.777 6.41107 39.21V28.4168C6.41107 27.8244 5.92239 27.3452 5.32106 27.3487C5.30012 27.3488 5.27919 27.3488 5.25825 27.3488C4.66083 27.347 4.17773 27.8284 4.17773 28.417Z" fill="url(#paint10_linear_123_143)"/>
<path d="M22.8156 56.391L13.3235 50.9945C12.8038 50.699 12.1384 50.8745 11.8411 51.3879C11.4711 52.0267 11.7413 52.6352 12.2073 52.9L21.6992 58.2965C22.2176 58.5911 22.8822 58.4179 23.1798 57.9064C23.552 57.2665 23.2826 56.6565 22.8156 56.391Z" fill="url(#paint11_linear_123_143)"/>
<path d="M14.2272 24.3506C14.2269 25.3146 13.285 25.7372 12.6005 25.348L12.21 25.1261C11.6837 24.8269 11.5195 24.1658 11.8244 23.648C12.1599 23.0781 12.8271 22.9382 13.3257 23.2217L13.6846 23.4258C14.0206 23.6165 14.2273 23.9686 14.2272 24.3506Z" fill="url(#paint12_linear_123_143)"/>
<path d="M13.6844 44.1993L13.3252 44.4035C12.8062 44.6984 12.142 44.5236 11.8445 44.0113C11.8339 43.9932 11.8233 43.975 11.8126 43.9569C11.5109 43.4474 11.6904 42.7933 12.209 42.4984L12.6001 42.2759C13.2783 41.8902 14.2266 42.2976 14.2269 43.2736C14.2271 43.6557 14.0202 44.0084 13.6844 44.1993Z" fill="url(#paint13_linear_123_143)"/>
<path d="M56.7922 43.1751C54.2594 41.7345 51.009 42.5925 49.5465 45.0876C48.0841 47.5827 48.955 50.7845 51.488 52.2251C54.0369 53.6747 57.2807 52.7916 58.7337 50.3126C60.1961 47.8175 59.3251 44.6157 56.7922 43.1751Z" fill="url(#paint14_linear_123_143)"/>
<path d="M7.95524 15.4002C5.42236 13.9596 2.17188 14.8176 0.709604 17.3127C-0.752811 19.8077 0.11819 23.0096 2.65107 24.4502C5.2 25.9 8.44364 25.0167 9.8967 22.5377C11.3591 20.0426 10.4881 16.8408 7.95524 15.4002Z" fill="url(#paint15_linear_123_143)"/>
<path d="M2.65107 43.1751C0.11819 44.6157 -0.752811 47.8175 0.709604 50.3126C1.69101 51.9869 3.47754 52.9241 5.31209 52.9241C9.36894 52.9241 11.9359 48.5667 9.8967 45.0876C8.43429 42.5925 5.18381 41.7345 2.65107 43.1751Z" fill="url(#paint16_linear_123_143)"/>
<path d="M54.149 25.1492C58.2056 25.1492 60.7724 20.7913 58.7336 17.3127C57.2712 14.8176 54.0209 13.9596 51.488 15.4002C48.9551 16.8409 48.0841 20.0427 49.5465 22.5377C50.5279 24.2122 52.3145 25.1492 54.149 25.1492Z" fill="url(#paint17_linear_123_143)"/>
<path d="M29.7212 66.8123C32.6506 66.8123 35.0253 64.473 35.0253 61.5873C35.0253 58.7016 32.6506 56.3623 29.7212 56.3623C26.7918 56.3623 24.417 58.7016 24.417 61.5873C24.417 64.473 26.7918 66.8123 29.7212 66.8123Z" fill="url(#paint18_linear_123_143)"/>
<path d="M29.7212 11.2625C32.6506 11.2625 35.0253 8.92319 35.0253 6.0375C35.0253 3.15181 32.6506 0.8125 29.7212 0.8125C26.7918 0.8125 24.417 3.15181 24.417 6.0375C24.417 8.92319 26.7918 11.2625 29.7212 11.2625Z" fill="url(#paint19_linear_123_143)"/>
<defs>
<linearGradient id="paint0_linear_123_143" x1="29.7214" y1="20.75" x2="29.7214" y2="46.875" gradientUnits="userSpaceOnUse">
<stop stop-color="#FFB800"/>
<stop offset="1" stop-color="#C68F00"/>
</linearGradient>
<linearGradient id="paint1_linear_123_143" x1="30.6989" y1="29.9624" x2="30.6989" y2="37.6624" gradientUnits="userSpaceOnUse">
<stop stop-color="#FFB800"/>
<stop offset="1" stop-color="#C68F00"/>
</linearGradient>
<linearGradient id="paint2_linear_123_143" x1="54.1489" y1="27.3486" x2="54.1489" y2="40.2787" gradientUnits="userSpaceOnUse">
<stop stop-color="#FFB800"/>
<stop offset="1" stop-color="#C68F00"/>
</linearGradient>
<linearGradient id="paint3_linear_123_143" x1="41.9322" y1="9.18457" x2="41.9322" y2="16.7735" gradientUnits="userSpaceOnUse">
<stop stop-color="#FFB800"/>
<stop offset="1" stop-color="#C68F00"/>
</linearGradient>
<linearGradient id="paint4_linear_123_143" x1="29.7212" y1="49.0752" x2="29.7212" y2="54.1627" gradientUnits="userSpaceOnUse">
<stop stop-color="#FFB800"/>
<stop offset="1" stop-color="#C68F00"/>
</linearGradient>
<linearGradient id="paint5_linear_123_143" x1="46.4961" y1="42.1318" x2="46.4961" y2="44.5467" gradientUnits="userSpaceOnUse">
<stop stop-color="#FFB800"/>
<stop offset="1" stop-color="#C68F00"/>
</linearGradient>
<linearGradient id="paint6_linear_123_143" x1="29.7212" y1="13.4624" x2="29.7212" y2="18.5499" gradientUnits="userSpaceOnUse">
<stop stop-color="#FFB800"/>
<stop offset="1" stop-color="#C68F00"/>
</linearGradient>
<linearGradient id="paint7_linear_123_143" x1="46.4934" y1="23.0796" x2="46.4934" y2="25.4923" gradientUnits="userSpaceOnUse">
<stop stop-color="#FFB800"/>
<stop offset="1" stop-color="#C68F00"/>
</linearGradient>
<linearGradient id="paint8_linear_123_143" x1="41.9315" y1="50.8506" x2="41.9315" y2="58.4405" gradientUnits="userSpaceOnUse">
<stop stop-color="#FFB800"/>
<stop offset="1" stop-color="#C68F00"/>
</linearGradient>
<linearGradient id="paint9_linear_123_143" x1="17.5115" y1="9.18408" x2="17.5115" y2="16.7742" gradientUnits="userSpaceOnUse">
<stop stop-color="#FFB800"/>
<stop offset="1" stop-color="#C68F00"/>
</linearGradient>
<linearGradient id="paint10_linear_123_143" x1="5.2944" y1="27.3486" x2="5.2944" y2="40.2787" gradientUnits="userSpaceOnUse">
<stop stop-color="#FFB800"/>
<stop offset="1" stop-color="#C68F00"/>
</linearGradient>
<linearGradient id="paint11_linear_123_143" x1="17.5113" y1="50.8511" x2="17.5113" y2="58.44" gradientUnits="userSpaceOnUse">
<stop stop-color="#FFB800"/>
<stop offset="1" stop-color="#C68F00"/>
</linearGradient>
<linearGradient id="paint12_linear_123_143" x1="12.9495" y1="23.0796" x2="12.9495" y2="25.4919" gradientUnits="userSpaceOnUse">
<stop stop-color="#FFB800"/>
<stop offset="1" stop-color="#C68F00"/>
</linearGradient>
<linearGradient id="paint13_linear_123_143" x1="12.9465" y1="42.1318" x2="12.9465" y2="44.5467" gradientUnits="userSpaceOnUse">
<stop stop-color="#FFB800"/>
<stop offset="1" stop-color="#C68F00"/>
</linearGradient>
<linearGradient id="paint14_linear_123_143" x1="54.1401" y1="42.4761" x2="54.1401" y2="52.9246" gradientUnits="userSpaceOnUse">
<stop stop-color="#FFB800"/>
<stop offset="1" stop-color="#C68F00"/>
</linearGradient>
<linearGradient id="paint15_linear_123_143" x1="5.30315" y1="14.7012" x2="5.30315" y2="25.1498" gradientUnits="userSpaceOnUse">
<stop stop-color="#FFB800"/>
<stop offset="1" stop-color="#C68F00"/>
</linearGradient>
<linearGradient id="paint16_linear_123_143" x1="5.30603" y1="42.4761" x2="5.30603" y2="52.9241" gradientUnits="userSpaceOnUse">
<stop stop-color="#FFB800"/>
<stop offset="1" stop-color="#C68F00"/>
</linearGradient>
<linearGradient id="paint17_linear_123_143" x1="54.1428" y1="14.7012" x2="54.1428" y2="25.1492" gradientUnits="userSpaceOnUse">
<stop stop-color="#FFB800"/>
<stop offset="1" stop-color="#C68F00"/>
</linearGradient>
<linearGradient id="paint18_linear_123_143" x1="29.7212" y1="56.3623" x2="29.7212" y2="66.8123" gradientUnits="userSpaceOnUse">
<stop stop-color="#FFB800"/>
<stop offset="1" stop-color="#C68F00"/>
</linearGradient>
<linearGradient id="paint19_linear_123_143" x1="29.7212" y1="0.8125" x2="29.7212" y2="11.2625" gradientUnits="userSpaceOnUse">
<stop stop-color="#FFB800"/>
<stop offset="1" stop-color="#C68F00"/>
</linearGradient>
</defs>
</svg>
