<svg width="67" height="52" viewBox="0 0 67 52" fill="none" xmlns="http://www.w3.org/2000/svg">
<path d="M62.7125 17.5637C59.698 17.6324 57.7418 20.7953 59.019 23.5219C56.7224 25.4704 53.519 27.4751 51.8047 27.0472C51.6359 27.0053 50.7801 25.9454 50.7735 21.9241C50.7709 20.2805 50.9123 18.65 51.0444 17.4866C53.1214 17.087 54.6552 15.1484 54.4122 12.9091C54.1675 10.654 52.2045 9.0391 49.9417 9.19823C46.847 9.41585 45.0348 12.886 46.6801 15.5604C45.1033 17.9106 42.6274 20.6299 40.8974 20.7018C40.6789 20.5788 39.28 19.5921 37.3996 13.7309C36.684 11.4991 35.9352 8.45691 35.9352 8.40365C37.0633 7.59703 37.7728 6.24342 37.6792 4.73408C37.5504 2.6576 35.8743 0.967679 33.7988 0.822948C31.3546 0.652438 29.3126 2.59138 29.3126 4.99999C29.3126 6.40149 30.0035 7.64466 31.0648 8.40365C31.0648 8.44748 30.4004 11.2366 29.6005 13.7309C27.72 19.5921 26.3211 20.5788 26.1026 20.7018C24.3726 20.6299 21.8954 17.9093 20.3199 15.5604C21.9645 12.887 20.1541 9.41663 17.0595 9.19836C14.7966 9.03871 12.8328 10.6534 12.5879 12.9088C12.3448 15.1482 13.8786 17.087 15.9557 17.4866C16.0879 18.65 16.2292 20.2805 16.2266 21.9241C16.2201 25.9454 15.3642 27.0053 15.1954 27.0472C13.4812 27.4764 10.2777 25.4704 7.98114 23.5219C9.25833 20.7955 7.30106 17.632 4.2871 17.5637C2.08382 17.5137 0.186481 19.2147 0.0133538 21.4117C-0.175346 23.8056 1.65996 25.8237 3.98861 25.9323C5.02017 27.9 7.25238 32.4854 8.80778 38.0199C8.88734 38.3031 9.14395 38.5001 9.43813 38.5001H57.5619C57.8561 38.5001 58.1127 38.3031 58.1922 38.0199C59.7478 32.4842 61.9812 27.9 63.0127 25.9323C65.3398 25.8224 67.1752 23.806 66.9867 21.4121C66.8138 19.2147 64.9161 17.5134 62.7125 17.5637ZM33.5001 35.3594C31.6222 35.3594 30.3594 33.4659 30.3594 30.6485C30.3594 27.8311 31.6222 25.9375 33.5001 25.9375C35.3779 25.9375 36.6407 27.8311 36.6407 30.6485C36.6407 33.4659 35.3779 35.3594 33.5001 35.3594Z" fill="url(#paint0_linear_178_65)"/>
<path d="M10.0102 43.4439C10.2985 45.2585 10.4688 47.1138 10.4692 48.9622C10.4694 50.1193 11.3945 51.0625 12.5515 51.0625H54.4494C55.6064 51.0625 56.5315 50.1193 56.5318 48.9622C56.5322 47.114 56.7025 45.2586 56.9907 43.4439C57.0538 43.0467 56.7474 42.6875 56.3453 42.6875H10.6556C10.2535 42.6875 9.94703 43.0467 10.0102 43.4439Z" fill="url(#paint1_linear_178_65)"/>
<defs>
<linearGradient id="paint0_linear_178_65" x1="33.5" y1="0.8125" x2="33.5" y2="38.5001" gradientUnits="userSpaceOnUse">
<stop stop-color="#FFB800"/>
<stop offset="1" stop-color="#C68F00"/>
</linearGradient>
<linearGradient id="paint1_linear_178_65" x1="33.5004" y1="42.6875" x2="33.5004" y2="51.0625" gradientUnits="userSpaceOnUse">
<stop stop-color="#FFB800"/>
<stop offset="1" stop-color="#C68F00"/>
</linearGradient>
</defs>
</svg>
