<svg width="58" height="39" viewBox="0 0 58 39" fill="none" xmlns="http://www.w3.org/2000/svg">
<path d="M15.2354 10.1438V13.128C16.2561 13.1046 17.2557 13.0472 18.222 12.9571C18.222 12.944 18.22 12.9316 18.22 12.9187V9.98047C17.2502 10.0666 16.2519 10.1213 15.2354 10.1438Z" fill="url(#paint0_linear_178_34)"/>
<path d="M28.3772 9.02174V7.19141C27.6451 7.67559 26.6721 8.14747 25.3926 8.58153V11.4343C27.4896 10.6189 28.3097 9.74618 28.3728 9.18086C28.3701 9.12779 28.3716 9.07458 28.3772 9.02174Z" fill="url(#paint1_linear_178_34)"/>
<path d="M10.1572 9.98047V12.9187C10.1572 12.9317 10.1558 12.9448 10.1553 12.9571C11.1217 13.0472 12.1209 13.1046 13.142 13.128V10.1438C12.1255 10.1214 11.1272 10.0666 10.1572 9.98047Z" fill="url(#paint2_linear_178_34)"/>
<path d="M8.06277 9.74036C7.01484 9.59131 6.01534 9.40313 5.07812 9.17871V12.0998C6.06168 12.3535 7.05795 12.5552 8.06277 12.7039V9.74036Z" fill="url(#paint3_linear_178_34)"/>
<path d="M20.4029 24.1087C20.0261 24.1174 19.6474 24.1218 19.2669 24.1218C15.088 24.1218 11.1444 23.5745 8.16288 22.5807C4.11121 21.2302 3.09077 19.4971 2.99393 18.21C0.937346 19.0121 0 19.9164 0 20.5362C0 21.1586 0.981446 22.2124 3.7465 23.1342C6.52072 24.0587 10.2285 24.5679 14.1891 24.5679C16.269 24.5714 18.3462 24.4179 20.4029 24.1087Z" fill="url(#paint4_linear_178_34)"/>
<path d="M3.7465 6.62946C6.52072 7.55398 10.2285 8.06316 14.1891 8.06316C18.1497 8.06316 21.8574 7.55398 24.6317 6.62946C27.397 5.70769 28.3782 4.65349 28.3782 4.03151C28.3782 3.40954 27.3967 2.3556 24.6317 1.43369C21.8574 0.509043 18.1497 0 14.1891 0C10.2285 0 6.52072 0.509043 3.7465 1.43369C0.981445 2.3556 0 3.40915 0 4.03151C0 4.65388 0.981445 5.70769 3.7465 6.62946Z" fill="url(#paint5_linear_178_34)"/>
<path d="M2.98477 11.4337V8.581C1.7051 8.14747 0.732813 7.67519 0 7.19141V9.1102C0 9.67158 0.798242 10.5839 2.98477 11.4337Z" fill="url(#paint6_linear_178_34)"/>
<path d="M0 25.6151C0 26.1765 0.798242 27.0887 2.98477 27.9386V25.0859C1.7051 24.6524 0.732813 24.1801 0 23.6963V25.6151Z" fill="url(#paint7_linear_178_34)"/>
<path d="M28.3662 18.0698C27.432 18.2933 26.4368 18.4811 25.3926 18.6295V21.5897C26.0897 21.4843 26.7646 21.3612 27.4099 21.2195C27.6206 20.1398 27.941 19.0844 28.3662 18.0698Z" fill="url(#paint8_linear_178_34)"/>
<path d="M25.3926 27.9382C26.0704 27.6884 26.7168 27.3607 27.3188 26.9616C27.1815 26.1147 27.1112 25.2583 27.1084 24.4004C26.5502 24.6631 25.9773 24.8935 25.3926 25.0903V27.9382Z" fill="url(#paint9_linear_178_34)"/>
<path d="M14.189 15.2353C11.6648 15.246 9.14477 15.0303 6.65918 14.5906C7.35051 14.9667 8.07575 15.2768 8.8253 15.5168C11.5995 16.4413 15.3074 16.9505 19.2679 16.9505C23.1912 16.9505 26.9795 16.4271 29.7196 15.5111C30.588 14.1726 31.6469 12.9679 32.863 11.9351C32.2898 11.4163 31.344 10.9091 30.13 10.4683C29.5758 11.5341 28.2315 12.7147 25.2934 13.6941C22.3119 14.6881 18.368 15.2353 14.189 15.2353Z" fill="url(#paint10_linear_178_34)"/>
<path d="M20.3135 19.0311V22.0163C21.3305 21.9927 22.33 21.9344 23.3002 21.8436C23.3002 21.8305 23.2983 21.8186 23.2983 21.8059V18.8691C22.3296 18.9549 21.3312 19.0088 20.3135 19.0311Z" fill="url(#paint11_linear_178_34)"/>
<path d="M13.142 21.5915V18.6281C12.0939 18.479 11.0946 18.2908 10.1572 18.0664V20.9873C11.1408 21.2411 12.1371 21.4427 13.142 21.5915Z" fill="url(#paint12_linear_178_34)"/>
<path d="M5.07812 17.9974C5.07812 18.5588 5.87702 19.4712 8.06277 20.321V17.4682C6.78309 17.0342 5.81028 16.562 5.07812 16.0781V17.9974Z" fill="url(#paint13_linear_178_34)"/>
<path d="M15.2334 21.845C16.1997 21.935 17.199 21.9924 18.22 22.0159V19.0315C17.2035 19.0091 16.2048 18.9543 15.2354 18.8682V21.8057C15.2354 21.8188 15.2339 21.8319 15.2334 21.845Z" fill="url(#paint14_linear_178_34)"/>
<path d="M20.3135 9.74023V12.7037C21.3183 12.5549 22.3146 12.3533 23.2983 12.0995V9.17871C22.361 9.40313 21.3615 9.59131 20.3135 9.74023Z" fill="url(#paint15_linear_178_34)"/>
<path d="M14.189 31.7402C11.6648 31.7509 9.14477 31.5352 6.65918 31.0955C7.35051 31.4716 8.07575 31.7817 8.8253 32.0217C11.5995 32.9462 15.3074 33.4554 19.2679 33.4554C22.945 33.4554 26.4536 33.0038 29.1335 32.2022C28.5895 31.2193 28.1492 30.1824 27.8197 29.1084C24.9217 30.7341 19.8387 31.7402 14.189 31.7402Z" fill="url(#paint16_linear_178_34)"/>
<path d="M25.3926 38.1C26.3975 37.9509 27.3938 37.7486 28.3772 37.4938V34.5703C27.4422 34.7928 26.4414 34.9808 25.3926 35.1303V38.1Z" fill="url(#paint17_linear_178_34)"/>
<path d="M23.2982 35.3711C22.3265 35.4581 21.3274 35.5139 20.3135 35.5368V38.521C21.363 38.4976 22.3597 38.4395 23.3003 38.3523C23.3003 38.3385 23.2982 38.325 23.2982 38.311V35.3711Z" fill="url(#paint18_linear_178_34)"/>
<path d="M30.4707 36.8224C31.0285 36.6101 31.5673 36.3512 32.0816 36.0484C31.5009 35.4871 30.9625 34.8837 30.4707 34.2432V36.8224Z" fill="url(#paint19_linear_178_34)"/>
<path d="M43.3896 15.2354C41.5878 15.2353 39.8264 15.7696 38.3282 16.7706C36.83 17.7717 35.6624 19.1945 34.9728 20.8591C34.2833 22.5238 34.1028 24.3555 34.4543 26.1228C34.8058 27.89 35.6735 29.5132 36.9476 30.7873C38.2216 32.0614 39.8449 32.9291 41.6121 33.2806C43.3793 33.6322 45.2111 33.4518 46.8758 32.7622C48.5404 32.0727 49.9633 30.905 50.9643 29.4069C51.9653 27.9087 52.4996 26.1473 52.4996 24.3455C52.4968 21.9302 51.5361 19.6147 49.8282 17.9068C48.1204 16.199 45.8049 15.2382 43.3896 15.2354ZM48.5626 26.7102C48.5626 26.8939 48.5143 27.0745 48.4224 27.2337C48.3305 27.3928 48.1983 27.525 48.0392 27.6169L44.0167 29.9391C43.8575 30.031 43.677 30.0794 43.4932 30.0794C43.3095 30.0794 43.129 30.031 42.9698 29.9391L38.9474 27.6167C38.7883 27.5249 38.6562 27.3927 38.5643 27.2336C38.4724 27.0744 38.424 26.8939 38.424 26.7102V22.0656C38.424 21.8818 38.4724 21.7013 38.5643 21.5421C38.6562 21.383 38.7883 21.2508 38.9474 21.159L42.9698 18.8366C43.129 18.7447 43.3095 18.6963 43.4932 18.6963C43.677 18.6963 43.8575 18.7447 44.0167 18.8366L48.0392 21.159C48.1983 21.2509 48.3305 21.383 48.4224 21.5422C48.5143 21.7014 48.5626 21.8819 48.5626 22.0657V26.7102Z" fill="url(#paint20_linear_178_34)"/>
<path d="M43.3896 10.1571C40.8429 10.1561 38.3429 10.8408 36.1522 12.1394C33.9614 13.438 32.1607 15.3024 30.9392 17.537C29.7177 19.7717 29.1203 22.2939 29.21 24.8391C29.2996 27.3842 30.0728 29.8582 31.4485 32.0014C31.5662 32.11 31.6571 32.2444 31.7143 32.3939C31.7152 32.3963 31.7158 32.3986 31.7167 32.4009C33.1037 34.4106 34.9861 36.0282 37.1815 37.0972C39.377 38.1663 41.8112 38.6505 44.2487 38.503C46.6861 38.3555 49.0442 37.5814 51.0948 36.2555C53.1453 34.9296 54.8189 33.0968 55.9536 30.9345C57.0882 28.7723 57.6455 26.3537 57.5715 23.913C57.4975 21.4722 56.7948 19.0918 55.5312 17.0023C54.2677 14.9127 52.4861 13.1847 50.359 11.9854C48.2319 10.7862 45.8312 10.1563 43.3893 10.1567L43.3896 10.1571ZM43.3896 35.5495C41.1737 35.5495 39.0075 34.8924 37.165 33.6613C35.3225 32.4302 33.8864 30.6804 33.0384 28.6332C32.1904 26.5859 31.9685 24.3332 32.4008 22.1598C32.8331 19.9865 33.9002 17.9901 35.4671 16.4232C37.034 14.8563 39.0304 13.7892 41.2037 13.3569C43.3771 12.9246 45.6298 13.1465 47.6771 13.9945C49.7243 14.8425 51.4742 16.2786 52.7052 18.1211C53.9363 19.9636 54.5934 22.1298 54.5934 24.3457C54.59 27.3161 53.4086 30.1639 51.3082 32.2643C49.2078 34.3646 46.36 35.5461 43.3896 35.5495Z" fill="url(#paint21_linear_178_34)"/>
<path d="M40.5176 22.6702V26.1059L43.4931 27.824L46.4687 26.1059V22.6702L43.4931 20.9521L40.5176 22.6702Z" fill="url(#paint22_linear_178_34)"/>
<path d="M20.3135 29.1993C21.3179 29.0503 22.3141 28.8503 23.2983 28.6003V25.6899C22.3667 25.9124 21.3666 26.0999 20.3135 26.2491V29.1993Z" fill="url(#paint23_linear_178_34)"/>
<path d="M10.1543 29.4625C11.1207 29.5525 12.1199 29.61 13.141 29.6334V26.6492C12.1245 26.6266 11.1258 26.5719 10.1563 26.4858V29.424C10.1565 29.437 10.1551 29.4495 10.1543 29.4625Z" fill="url(#paint24_linear_178_34)"/>
<path d="M8.06277 29.2092V26.2457C7.01484 26.0967 6.01534 25.9085 5.07812 25.6841V28.605C6.06168 28.8588 7.05795 29.0604 8.06277 29.2092Z" fill="url(#paint25_linear_178_34)"/>
<path d="M15.2354 26.6498V29.6334C16.2537 29.6088 17.2541 29.5482 18.2217 29.4559C18.2217 29.4452 18.22 29.4346 18.22 29.4237V26.4883C17.2549 26.5733 16.2566 26.6275 15.2354 26.6498Z" fill="url(#paint26_linear_178_34)"/>
<path d="M5.07812 34.5023C5.07812 35.0637 5.87702 35.9759 8.06277 36.8259V33.9731C6.78309 33.5391 5.81028 33.0668 5.07812 32.583V34.5023Z" fill="url(#paint27_linear_178_34)"/>
<path d="M15.2354 38.3112C15.2354 38.3243 15.2339 38.3374 15.2334 38.3497C16.1997 38.4397 17.199 38.4972 18.22 38.5206V35.5364C17.2035 35.514 16.2048 35.4592 15.2354 35.373V38.3112Z" fill="url(#paint28_linear_178_34)"/>
<path d="M10.1572 37.4922C11.1408 37.746 12.1371 37.9476 13.142 38.0964V35.1329C12.0939 34.9839 11.0946 34.7957 10.1572 34.5713V37.4922Z" fill="url(#paint29_linear_178_34)"/>
<defs>
<linearGradient id="paint0_linear_178_34" x1="16.7287" y1="9.98047" x2="16.7287" y2="13.128" gradientUnits="userSpaceOnUse">
<stop stop-color="#FFB800"/>
<stop offset="1" stop-color="#C68F00"/>
</linearGradient>
<linearGradient id="paint1_linear_178_34" x1="26.8849" y1="7.19141" x2="26.8849" y2="11.4343" gradientUnits="userSpaceOnUse">
<stop stop-color="#FFB800"/>
<stop offset="1" stop-color="#C68F00"/>
</linearGradient>
<linearGradient id="paint2_linear_178_34" x1="11.6486" y1="9.98047" x2="11.6486" y2="13.128" gradientUnits="userSpaceOnUse">
<stop stop-color="#FFB800"/>
<stop offset="1" stop-color="#C68F00"/>
</linearGradient>
<linearGradient id="paint3_linear_178_34" x1="6.57045" y1="9.17871" x2="6.57045" y2="12.7039" gradientUnits="userSpaceOnUse">
<stop stop-color="#FFB800"/>
<stop offset="1" stop-color="#C68F00"/>
</linearGradient>
<linearGradient id="paint4_linear_178_34" x1="10.2015" y1="18.21" x2="10.2015" y2="24.568" gradientUnits="userSpaceOnUse">
<stop stop-color="#FFB800"/>
<stop offset="1" stop-color="#C68F00"/>
</linearGradient>
<linearGradient id="paint5_linear_178_34" x1="14.1891" y1="0" x2="14.1891" y2="8.06316" gradientUnits="userSpaceOnUse">
<stop stop-color="#FFB800"/>
<stop offset="1" stop-color="#C68F00"/>
</linearGradient>
<linearGradient id="paint6_linear_178_34" x1="1.49239" y1="7.19141" x2="1.49239" y2="11.4337" gradientUnits="userSpaceOnUse">
<stop stop-color="#FFB800"/>
<stop offset="1" stop-color="#C68F00"/>
</linearGradient>
<linearGradient id="paint7_linear_178_34" x1="1.49239" y1="23.6963" x2="1.49239" y2="27.9386" gradientUnits="userSpaceOnUse">
<stop stop-color="#FFB800"/>
<stop offset="1" stop-color="#C68F00"/>
</linearGradient>
<linearGradient id="paint8_linear_178_34" x1="26.8794" y1="18.0698" x2="26.8794" y2="21.5897" gradientUnits="userSpaceOnUse">
<stop stop-color="#FFB800"/>
<stop offset="1" stop-color="#C68F00"/>
</linearGradient>
<linearGradient id="paint9_linear_178_34" x1="26.3557" y1="24.4004" x2="26.3557" y2="27.9382" gradientUnits="userSpaceOnUse">
<stop stop-color="#FFB800"/>
<stop offset="1" stop-color="#C68F00"/>
</linearGradient>
<linearGradient id="paint10_linear_178_34" x1="19.7611" y1="10.4683" x2="19.7611" y2="16.9505" gradientUnits="userSpaceOnUse">
<stop stop-color="#FFB800"/>
<stop offset="1" stop-color="#C68F00"/>
</linearGradient>
<linearGradient id="paint11_linear_178_34" x1="21.8068" y1="18.8691" x2="21.8068" y2="22.0163" gradientUnits="userSpaceOnUse">
<stop stop-color="#FFB800"/>
<stop offset="1" stop-color="#C68F00"/>
</linearGradient>
<linearGradient id="paint12_linear_178_34" x1="11.6496" y1="18.0664" x2="11.6496" y2="21.5915" gradientUnits="userSpaceOnUse">
<stop stop-color="#FFB800"/>
<stop offset="1" stop-color="#C68F00"/>
</linearGradient>
<linearGradient id="paint13_linear_178_34" x1="6.57045" y1="16.0781" x2="6.57045" y2="20.321" gradientUnits="userSpaceOnUse">
<stop stop-color="#FFB800"/>
<stop offset="1" stop-color="#C68F00"/>
</linearGradient>
<linearGradient id="paint14_linear_178_34" x1="16.7267" y1="18.8682" x2="16.7267" y2="22.0159" gradientUnits="userSpaceOnUse">
<stop stop-color="#FFB800"/>
<stop offset="1" stop-color="#C68F00"/>
</linearGradient>
<linearGradient id="paint15_linear_178_34" x1="21.8059" y1="9.17871" x2="21.8059" y2="12.7037" gradientUnits="userSpaceOnUse">
<stop stop-color="#FFB800"/>
<stop offset="1" stop-color="#C68F00"/>
</linearGradient>
<linearGradient id="paint16_linear_178_34" x1="17.8963" y1="29.1084" x2="17.8963" y2="33.4554" gradientUnits="userSpaceOnUse">
<stop stop-color="#FFB800"/>
<stop offset="1" stop-color="#C68F00"/>
</linearGradient>
<linearGradient id="paint17_linear_178_34" x1="26.8849" y1="34.5703" x2="26.8849" y2="38.1" gradientUnits="userSpaceOnUse">
<stop stop-color="#FFB800"/>
<stop offset="1" stop-color="#C68F00"/>
</linearGradient>
<linearGradient id="paint18_linear_178_34" x1="21.8069" y1="35.3711" x2="21.8069" y2="38.521" gradientUnits="userSpaceOnUse">
<stop stop-color="#FFB800"/>
<stop offset="1" stop-color="#C68F00"/>
</linearGradient>
<linearGradient id="paint19_linear_178_34" x1="31.2761" y1="34.2432" x2="31.2761" y2="36.8224" gradientUnits="userSpaceOnUse">
<stop stop-color="#FFB800"/>
<stop offset="1" stop-color="#C68F00"/>
</linearGradient>
<linearGradient id="paint20_linear_178_34" x1="43.3895" y1="15.2354" x2="43.3895" y2="33.4557" gradientUnits="userSpaceOnUse">
<stop stop-color="#FFB800"/>
<stop offset="1" stop-color="#C68F00"/>
</linearGradient>
<linearGradient id="paint21_linear_178_34" x1="43.3896" y1="10.1567" x2="43.3896" y2="38.5289" gradientUnits="userSpaceOnUse">
<stop stop-color="#FFB800"/>
<stop offset="1" stop-color="#C68F00"/>
</linearGradient>
<linearGradient id="paint22_linear_178_34" x1="43.4931" y1="20.9521" x2="43.4931" y2="27.824" gradientUnits="userSpaceOnUse">
<stop stop-color="#FFB800"/>
<stop offset="1" stop-color="#C68F00"/>
</linearGradient>
<linearGradient id="paint23_linear_178_34" x1="21.8059" y1="25.6899" x2="21.8059" y2="29.1993" gradientUnits="userSpaceOnUse">
<stop stop-color="#FFB800"/>
<stop offset="1" stop-color="#C68F00"/>
</linearGradient>
<linearGradient id="paint24_linear_178_34" x1="11.6477" y1="26.4858" x2="11.6477" y2="29.6334" gradientUnits="userSpaceOnUse">
<stop stop-color="#FFB800"/>
<stop offset="1" stop-color="#C68F00"/>
</linearGradient>
<linearGradient id="paint25_linear_178_34" x1="6.57045" y1="25.6841" x2="6.57045" y2="29.2092" gradientUnits="userSpaceOnUse">
<stop stop-color="#FFB800"/>
<stop offset="1" stop-color="#C68F00"/>
</linearGradient>
<linearGradient id="paint26_linear_178_34" x1="16.7285" y1="26.4883" x2="16.7285" y2="29.6334" gradientUnits="userSpaceOnUse">
<stop stop-color="#FFB800"/>
<stop offset="1" stop-color="#C68F00"/>
</linearGradient>
<linearGradient id="paint27_linear_178_34" x1="6.57045" y1="32.583" x2="6.57045" y2="36.8259" gradientUnits="userSpaceOnUse">
<stop stop-color="#FFB800"/>
<stop offset="1" stop-color="#C68F00"/>
</linearGradient>
<linearGradient id="paint28_linear_178_34" x1="16.7267" y1="35.373" x2="16.7267" y2="38.5206" gradientUnits="userSpaceOnUse">
<stop stop-color="#FFB800"/>
<stop offset="1" stop-color="#C68F00"/>
</linearGradient>
<linearGradient id="paint29_linear_178_34" x1="11.6496" y1="34.5713" x2="11.6496" y2="38.0964" gradientUnits="userSpaceOnUse">
<stop stop-color="#FFB800"/>
<stop offset="1" stop-color="#C68F00"/>
</linearGradient>
</defs>
</svg>
