<svg width="60" height="67" viewBox="0 0 60 67" fill="none" xmlns="http://www.w3.org/2000/svg">
<path d="M25.8876 33.7746L4.49349 22.1476C3.54186 21.6307 2.41809 21.6521 1.48688 22.2056C0.555665 22.7591 0 23.7362 0 24.8196V51.7915C0 52.8828 0.589306 53.8958 1.53806 54.4353L22.9325 66.598C23.4042 66.8661 23.9199 67 24.4358 67C24.9615 67 25.487 66.8608 25.9649 66.5827C26.9115 66.032 27.4766 65.0493 27.4766 63.9541V36.4466C27.4766 35.3312 26.8679 34.3074 25.8876 33.7746Z" fill="url(#paint0_linear_130_278)"/>
<path d="M55.9005 15.1319C55.899 13.9931 55.2699 12.9602 54.259 12.4362L30.9294 0.341284C30.0461 -0.116862 28.9933 -0.113458 28.1133 0.349792L5.1268 12.4447C4.12595 12.9716 3.5034 14.0014 3.50196 15.1324C3.50065 16.2633 4.12071 17.2945 5.12013 17.8236L28.1067 29.994C28.5518 30.2295 29.0404 30.3473 29.5293 30.3473C30.0122 30.3473 30.4952 30.2324 30.9358 30.0024L54.2659 17.8322C55.2757 17.3055 55.902 16.2707 55.9005 15.1319Z" fill="url(#paint1_linear_130_278)"/>
<path d="M58.2954 22.2056C57.3647 21.652 56.2404 21.6302 55.2891 22.1475L33.8944 33.7746C32.9143 34.3073 32.3057 35.3311 32.3057 36.4465V63.9539C32.3057 65.0492 32.8708 66.0318 33.8173 66.5825C34.2952 66.8607 34.8206 66.9997 35.3464 66.9997C35.8622 66.9997 36.3782 66.8658 36.8497 66.5978L58.2443 54.4351C59.1931 53.8957 59.7822 52.8827 59.7822 51.7914V24.8195C59.7822 23.7362 59.2266 22.7591 58.2954 22.2056Z" fill="url(#paint2_linear_130_278)"/>
<defs>
<linearGradient id="paint0_linear_130_278" x1="13.7383" y1="21.7747" x2="13.7383" y2="67" gradientUnits="userSpaceOnUse">
<stop stop-color="#FFB800"/>
<stop offset="1" stop-color="#C68F00"/>
</linearGradient>
<linearGradient id="paint1_linear_130_278" x1="29.7012" y1="0" x2="29.7012" y2="30.3473" gradientUnits="userSpaceOnUse">
<stop stop-color="#FFB800"/>
<stop offset="1" stop-color="#C68F00"/>
</linearGradient>
<linearGradient id="paint2_linear_130_278" x1="46.044" y1="21.7744" x2="46.044" y2="66.9997" gradientUnits="userSpaceOnUse">
<stop stop-color="#FFB800"/>
<stop offset="1" stop-color="#C68F00"/>
</linearGradient>
</defs>
</svg>
