<svg width="67" height="59" viewBox="0 0 67 59" fill="none" xmlns="http://www.w3.org/2000/svg">
<path d="M33.3773 15.6471C37.6981 15.6471 41.2008 12.1444 41.2008 7.82356C41.2008 3.50273 37.6981 0 33.3773 0C29.0564 0 25.5537 3.50273 25.5537 7.82356C25.5537 12.1444 29.0564 15.6471 33.3773 15.6471Z" fill="url(#paint0_linear_130_269)"/>
<path d="M60.763 29.3477L53.4714 27.8267C50.9872 27.3063 48.5346 28.4449 47.238 30.4691C45.9786 29.8222 44.6243 29.2644 43.1838 28.8014V24.4655C43.1867 21.1849 40.5011 18.5022 37.2321 18.5022H29.7766C26.4902 18.5022 23.8162 21.1849 23.8162 24.4655V28.8244C22.3901 29.2786 21.0502 29.8365 19.7822 30.4863C18.4855 28.4534 16.0299 27.3063 13.5428 27.8267L6.24536 29.3477C3.0423 30.0176 0.963445 33.1948 1.63338 36.4093L3.46498 45.1587C4.12918 48.3646 7.30918 50.4435 10.5152 49.7735L12.824 49.2905C13.9797 50.9984 15.5785 52.5654 17.6256 53.9052C21.8895 56.7 27.5223 58.2412 33.4999 58.2412C42.6461 58.2412 50.5243 54.5637 54.1528 49.2818L56.4991 49.7735C59.7021 50.4405 62.8821 48.3646 63.5463 45.1587L65.3807 36.4093C66.0477 33.1948 63.9689 30.0176 60.763 29.3477ZM33.4969 55.2538C28.0972 55.2538 23.0367 53.8938 19.2615 51.4066C17.9676 50.5613 16.8952 49.6212 16.0355 48.6148L17.8038 48.2438C21.0126 47.5768 23.0915 44.3996 22.4215 41.1908L20.7797 33.3241C21.7372 32.8094 22.7436 32.358 23.8131 31.9728V33.4075C23.8131 36.6824 26.4929 39.3651 29.7735 39.3651H37.229C40.5011 39.3651 43.1809 36.6796 43.1809 33.4075V31.898C44.2706 32.2861 45.2941 32.7319 46.243 33.2379L44.5782 41.1938C43.914 44.4026 45.9899 47.5798 49.1987 48.2468L50.9842 48.6205C47.6548 52.5626 41.0675 55.2538 33.4969 55.2538Z" fill="url(#paint1_linear_130_269)"/>
<path d="M59.1761 25.932C63.4969 25.932 66.9997 22.4293 66.9997 18.1085C66.9997 13.7876 63.4969 10.2849 59.1761 10.2849C54.8553 10.2849 51.3525 13.7876 51.3525 18.1085C51.3525 22.4293 54.8553 25.932 59.1761 25.932Z" fill="url(#paint2_linear_130_269)"/>
<path d="M9.42878 25.7679C13.6611 24.8823 16.3639 20.7334 15.4898 16.5038C14.5985 12.2772 10.4581 9.56291 6.22279 10.4485C1.99617 11.3312 -0.718096 15.4773 0.16751 19.7069C1.05032 23.9392 5.19643 26.6507 9.42878 25.7679Z" fill="url(#paint3_linear_130_269)"/>
<defs>
<linearGradient id="paint0_linear_130_269" x1="33.3773" y1="0" x2="33.3773" y2="15.6471" gradientUnits="userSpaceOnUse">
<stop stop-color="#FFB800"/>
<stop offset="1" stop-color="#C68F00"/>
</linearGradient>
<linearGradient id="paint1_linear_130_269" x1="33.5066" y1="18.5022" x2="33.5066" y2="58.2412" gradientUnits="userSpaceOnUse">
<stop stop-color="#FFB800"/>
<stop offset="1" stop-color="#C68F00"/>
</linearGradient>
<linearGradient id="paint2_linear_130_269" x1="59.1761" y1="10.2849" x2="59.1761" y2="25.932" gradientUnits="userSpaceOnUse">
<stop stop-color="#FFB800"/>
<stop offset="1" stop-color="#C68F00"/>
</linearGradient>
<linearGradient id="paint3_linear_130_269" x1="7.82698" y1="10.281" x2="7.82698" y2="25.9346" gradientUnits="userSpaceOnUse">
<stop stop-color="#FFB800"/>
<stop offset="1" stop-color="#C68F00"/>
</linearGradient>
</defs>
</svg>
