<svg width="67" height="67" viewBox="0 0 67 67" fill="none" xmlns="http://www.w3.org/2000/svg">
<path d="M31.2188 48.0219H29.125V50.1232C29.125 50.9318 28.6629 51.6663 27.9391 52.0172C27.2132 52.366 26.3504 52.2676 25.7227 51.7647L15.2539 43.3594C14.7571 42.9595 14.4688 42.356 14.4688 41.7179C14.4688 41.0797 14.7571 40.4763 15.2539 40.0761L25.7227 31.6708C26.3525 31.166 27.2092 31.0695 27.9391 31.4183C28.6629 31.7694 29.125 32.5039 29.125 33.3125V35.4138H31.2188V29.1097C31.2188 27.9483 32.1553 27.0084 33.3125 27.0084H39.5938C40.6959 27.0084 41.5975 27.862 41.6814 28.9456L46.7112 24.9069L41.6814 20.8683C41.5977 21.9518 40.6959 22.8054 39.5938 22.8054H33.3125C32.1553 22.8054 31.2188 21.8655 31.2188 20.7041V4C16.033 5.08498 4 17.7999 4 33.3125C4 48.8251 16.033 61.54 31.2188 62.625V48.0219Z" fill="url(#paint0_linear_130_221)"/>
<path d="M35.4066 4V18.6031H37.5003V16.5016C37.5003 15.693 37.9624 14.9585 38.6862 14.6076C39.41 14.2567 40.2729 14.3551 40.9026 14.8601L51.3714 23.2654C51.8682 23.6655 52.1566 24.269 52.1566 24.9071C52.1566 25.5453 51.8682 26.1487 51.3714 26.5488L40.9026 34.9542C40.2749 35.4611 39.4161 35.5576 38.6862 35.2067C37.9624 34.8556 37.5003 34.1211 37.5003 33.3125V31.2112H35.4066V37.5153C35.4066 38.6767 34.47 39.6166 33.3128 39.6166H27.0316C25.9294 39.6166 25.0278 38.7629 24.9439 37.6794L19.9141 41.7181L24.9439 45.7567C25.0276 44.6732 25.9294 43.8196 27.0316 43.8196H33.3128C34.47 43.8196 35.4066 44.7594 35.4066 45.9209V62.625C50.5923 61.54 62.6253 48.8251 62.6253 33.3125C62.6253 17.7999 50.5923 5.08498 35.4066 4Z" fill="url(#paint1_linear_130_221)"/>
<defs>
<linearGradient id="paint0_linear_130_221" x1="25.3556" y1="4" x2="25.3556" y2="62.625" gradientUnits="userSpaceOnUse">
<stop stop-color="#FFB800"/>
<stop offset="1" stop-color="#C68F00"/>
</linearGradient>
<linearGradient id="paint1_linear_130_221" x1="41.2697" y1="4" x2="41.2697" y2="62.625" gradientUnits="userSpaceOnUse">
<stop stop-color="#FFB800"/>
<stop offset="1" stop-color="#C68F00"/>
</linearGradient>
</defs>
</svg>
