<svg width="58" height="39" viewBox="0 0 58 39" fill="none" xmlns="http://www.w3.org/2000/svg">
<path d="M15.2354 10.1439V13.1282C16.2561 13.1047 17.2557 13.0473 18.222 12.9573C18.222 12.9442 18.22 12.9317 18.22 12.9188V9.98059C17.2502 10.0667 16.2519 10.1214 15.2354 10.1439Z" fill="url(#paint0_linear_130_236)"/>
<path d="M28.3772 9.02149V7.19116C27.6451 7.67534 26.6721 8.14722 25.3926 8.58128V11.434C27.4896 10.6186 28.3097 9.74593 28.3728 9.18062C28.3701 9.12754 28.3716 9.07434 28.3772 9.02149Z" fill="url(#paint1_linear_130_236)"/>
<path d="M10.1572 9.98059V12.9188C10.1572 12.9319 10.1558 12.9449 10.1553 12.9573C11.1217 13.0473 12.1209 13.1047 13.142 13.1282V10.1439C12.1255 10.1215 11.1272 10.0667 10.1572 9.98059Z" fill="url(#paint2_linear_130_236)"/>
<path d="M8.06277 9.74036C7.01484 9.59131 6.01534 9.40313 5.07812 9.17871V12.0998C6.06168 12.3535 7.05795 12.5552 8.06277 12.7039V9.74036Z" fill="url(#paint3_linear_130_236)"/>
<path d="M20.4029 24.1087C20.0261 24.1174 19.6474 24.1218 19.2669 24.1218C15.088 24.1218 11.1444 23.5745 8.16288 22.5807C4.11121 21.2302 3.09077 19.4971 2.99393 18.21C0.937346 19.0121 0 19.9164 0 20.5362C0 21.1586 0.981446 22.2124 3.7465 23.1342C6.52072 24.0587 10.2285 24.5679 14.1891 24.5679C16.269 24.5714 18.3462 24.4179 20.4029 24.1087Z" fill="url(#paint4_linear_130_236)"/>
<path d="M3.7465 6.62946C6.52072 7.55398 10.2285 8.06316 14.1891 8.06316C18.1497 8.06316 21.8574 7.55398 24.6317 6.62946C27.397 5.70769 28.3782 4.65349 28.3782 4.03151C28.3782 3.40954 27.3967 2.3556 24.6317 1.43369C21.8574 0.509043 18.1497 0 14.1891 0C10.2285 0 6.52072 0.509043 3.7465 1.43369C0.981445 2.3556 0 3.40915 0 4.03151C0 4.65388 0.981445 5.70769 3.7465 6.62946Z" fill="url(#paint5_linear_130_236)"/>
<path d="M2.98477 11.4335V8.58076C1.7051 8.14722 0.732813 7.67495 0 7.19116V9.10995C0 9.67134 0.798242 10.5837 2.98477 11.4335Z" fill="url(#paint6_linear_130_236)"/>
<path d="M0 25.6151C0 26.1765 0.798242 27.0887 2.98477 27.9386V25.0859C1.7051 24.6524 0.732813 24.1801 0 23.6963V25.6151Z" fill="url(#paint7_linear_130_236)"/>
<path d="M28.3662 18.0699C27.432 18.2935 26.4368 18.4812 25.3926 18.6296V21.5898C26.0897 21.4845 26.7646 21.3613 27.4099 21.2196C27.6206 20.1399 27.941 19.0845 28.3662 18.0699Z" fill="url(#paint8_linear_130_236)"/>
<path d="M25.3926 27.9381C26.0704 27.6883 26.7168 27.3606 27.3188 26.9614C27.1815 26.1146 27.1112 25.2582 27.1084 24.4003C26.5502 24.663 25.9773 24.8934 25.3926 25.0902V27.9381Z" fill="url(#paint9_linear_130_236)"/>
<path d="M14.189 15.2352C11.6648 15.2459 9.14477 15.0301 6.65918 14.5905C7.35051 14.9666 8.07575 15.2767 8.8253 15.5167C11.5995 16.4412 15.3074 16.9504 19.2679 16.9504C23.1912 16.9504 26.9795 16.427 29.7196 15.5109C30.588 14.1725 31.6469 12.9678 32.863 11.9349C32.2898 11.4162 31.344 10.909 30.13 10.4681C29.5758 11.534 28.2315 12.7146 25.2934 13.694C22.3119 14.688 18.368 15.2352 14.189 15.2352Z" fill="url(#paint10_linear_130_236)"/>
<path d="M20.3135 19.0314V22.0165C21.3305 21.993 22.33 21.9346 23.3002 21.8438C23.3002 21.8307 23.2983 21.8188 23.2983 21.8061V18.8694C22.3296 18.9551 21.3312 19.009 20.3135 19.0314Z" fill="url(#paint11_linear_130_236)"/>
<path d="M13.142 21.5912V18.6278C12.0939 18.4788 11.0946 18.2906 10.1572 18.0662V20.9871C11.1408 21.2408 12.1371 21.4425 13.142 21.5912Z" fill="url(#paint12_linear_130_236)"/>
<path d="M5.07812 17.9977C5.07812 18.5591 5.87702 19.4714 8.06277 20.3212V17.4685C6.78309 17.0344 5.81028 16.5623 5.07812 16.0784V17.9977Z" fill="url(#paint13_linear_130_236)"/>
<path d="M15.2334 21.8448C16.1997 21.9349 17.199 21.9923 18.22 22.0157V19.0314C17.2035 19.009 16.2048 18.9541 15.2354 18.868V21.8056C15.2354 21.8187 15.2339 21.8317 15.2334 21.8448Z" fill="url(#paint14_linear_130_236)"/>
<path d="M20.3135 9.74035V12.7038C21.3183 12.5551 22.3146 12.3534 23.2983 12.0996V9.17883C22.361 9.40326 21.3615 9.59143 20.3135 9.74035Z" fill="url(#paint15_linear_130_236)"/>
<path d="M14.189 31.7404C11.6648 31.7511 9.14477 31.5353 6.65918 31.0956C7.35051 31.4717 8.07575 31.7819 8.8253 32.0218C11.5995 32.9464 15.3074 33.4555 19.2679 33.4555C22.945 33.4555 26.4536 33.0039 29.1335 32.2023C28.5895 31.2194 28.1492 30.1825 27.8197 29.1085C24.9217 30.7342 19.8387 31.7404 14.189 31.7404Z" fill="url(#paint16_linear_130_236)"/>
<path d="M25.3926 38.0999C26.3975 37.9508 27.3938 37.7485 28.3772 37.4937V34.5702C27.4422 34.7927 26.4414 34.9807 25.3926 35.1301V38.0999Z" fill="url(#paint17_linear_130_236)"/>
<path d="M23.2982 35.3712C22.3265 35.4582 21.3274 35.514 20.3135 35.5369V38.5211C21.363 38.4977 22.3597 38.4396 23.3003 38.3525C23.3003 38.3386 23.2982 38.3251 23.2982 38.3111V35.3712Z" fill="url(#paint18_linear_130_236)"/>
<path d="M30.4707 36.8225C31.0285 36.6103 31.5673 36.3513 32.0816 36.0485C31.5009 35.4872 30.9625 34.8838 30.4707 34.2433V36.8225Z" fill="url(#paint19_linear_130_236)"/>
<path d="M43.3896 15.2354C41.5878 15.2353 39.8264 15.7696 38.3282 16.7706C36.83 17.7717 35.6624 19.1945 34.9728 20.8591C34.2833 22.5238 34.1028 24.3555 34.4543 26.1228C34.8058 27.89 35.6735 29.5132 36.9476 30.7873C38.2216 32.0614 39.8449 32.9291 41.6121 33.2806C43.3793 33.6322 45.2111 33.4518 46.8758 32.7622C48.5404 32.0727 49.9633 30.905 50.9643 29.4069C51.9653 27.9087 52.4996 26.1473 52.4996 24.3455C52.4968 21.9302 51.5361 19.6147 49.8282 17.9068C48.1204 16.199 45.8049 15.2382 43.3896 15.2354ZM48.5626 26.7102C48.5626 26.8939 48.5143 27.0745 48.4224 27.2337C48.3305 27.3928 48.1983 27.525 48.0392 27.6169L44.0167 29.9391C43.8575 30.031 43.677 30.0794 43.4932 30.0794C43.3095 30.0794 43.129 30.031 42.9698 29.9391L38.9474 27.6167C38.7883 27.5249 38.6562 27.3927 38.5643 27.2336C38.4724 27.0744 38.424 26.8939 38.424 26.7102V22.0656C38.424 21.8818 38.4724 21.7013 38.5643 21.5421C38.6562 21.383 38.7883 21.2508 38.9474 21.159L42.9698 18.8366C43.129 18.7447 43.3095 18.6963 43.4932 18.6963C43.677 18.6963 43.8575 18.7447 44.0167 18.8366L48.0392 21.159C48.1983 21.2509 48.3305 21.383 48.4224 21.5422C48.5143 21.7014 48.5626 21.8819 48.5626 22.0657V26.7102Z" fill="url(#paint20_linear_130_236)"/>
<path d="M43.3896 10.1569C40.8429 10.1559 38.3429 10.8406 36.1522 12.1392C33.9614 13.4377 32.1607 15.3022 30.9392 17.5368C29.7177 19.7714 29.1203 22.2937 29.21 24.8388C29.2996 27.3839 30.0728 29.858 31.4485 32.0011C31.5662 32.1098 31.6571 32.2441 31.7143 32.3937C31.7152 32.396 31.7158 32.3984 31.7167 32.4006C33.1037 34.4103 34.9861 36.028 37.1815 37.097C39.377 38.166 41.8112 38.6502 44.2487 38.5027C46.6861 38.3553 49.0442 37.5811 51.0948 36.2552C53.1453 34.9293 54.8189 33.0966 55.9536 30.9343C57.0882 28.772 57.6455 26.3535 57.5715 23.9127C57.4975 21.4719 56.7948 19.0916 55.5312 17.002C54.2677 14.9125 52.4861 13.1844 50.359 11.9852C48.2319 10.7859 45.8312 10.156 43.3893 10.1565L43.3896 10.1569ZM43.3896 35.5492C41.1737 35.5493 39.0075 34.8922 37.165 33.6611C35.3225 32.43 33.8864 30.6802 33.0384 28.6329C32.1904 26.5857 31.9685 24.3329 32.4008 22.1596C32.8331 19.9862 33.9002 17.9899 35.4671 16.4229C37.034 14.856 39.0304 13.789 41.2037 13.3567C43.3771 12.9244 45.6298 13.1463 47.6771 13.9943C49.7243 14.8423 51.4742 16.2783 52.7052 18.1208C53.9363 19.9633 54.5934 22.1295 54.5934 24.3454C54.59 27.3158 53.4086 30.1636 51.3082 32.264C49.2078 34.3644 46.36 35.5459 43.3896 35.5492Z" fill="url(#paint21_linear_130_236)"/>
<path d="M40.5176 22.67V26.1057L43.4931 27.8237L46.4687 26.1057V22.67L43.4931 20.9519L40.5176 22.67Z" fill="url(#paint22_linear_130_236)"/>
<path d="M20.3135 29.1992C21.3179 29.0502 22.3141 28.8502 23.2983 28.6001V25.6898C22.3667 25.9123 21.3666 26.0998 20.3135 26.249V29.1992Z" fill="url(#paint23_linear_130_236)"/>
<path d="M10.1543 29.4624C11.1207 29.5524 12.1199 29.6099 13.141 29.6333V26.649C12.1245 26.6265 11.1258 26.5718 10.1563 26.4857V29.4239C10.1565 29.4369 10.1551 29.4494 10.1543 29.4624Z" fill="url(#paint24_linear_130_236)"/>
<path d="M8.06277 29.2091V26.2456C7.01484 26.0966 6.01534 25.9084 5.07812 25.684V28.6049C6.06168 28.8586 7.05795 29.0603 8.06277 29.2091Z" fill="url(#paint25_linear_130_236)"/>
<path d="M15.2354 26.6499V29.6335C16.2537 29.6089 17.2541 29.5483 18.2217 29.456C18.2217 29.4453 18.22 29.4347 18.22 29.4238V26.4884C17.2549 26.5735 16.2566 26.6276 15.2354 26.6499Z" fill="url(#paint26_linear_130_236)"/>
<path d="M5.07812 34.5023C5.07812 35.0637 5.87702 35.9759 8.06277 36.8259V33.9731C6.78309 33.5391 5.81028 33.0668 5.07812 32.583V34.5023Z" fill="url(#paint27_linear_130_236)"/>
<path d="M15.2354 38.3112C15.2354 38.3243 15.2339 38.3374 15.2334 38.3497C16.1997 38.4397 17.199 38.4972 18.22 38.5206V35.5364C17.2035 35.514 16.2048 35.4592 15.2354 35.373V38.3112Z" fill="url(#paint28_linear_130_236)"/>
<path d="M10.1572 37.4921C11.1408 37.7458 12.1371 37.9475 13.142 38.0963V35.1328C12.0939 34.9838 11.0946 34.7956 10.1572 34.5712V37.4921Z" fill="url(#paint29_linear_130_236)"/>
<defs>
<linearGradient id="paint0_linear_130_236" x1="16.7287" y1="9.98059" x2="16.7287" y2="13.1282" gradientUnits="userSpaceOnUse">
<stop stop-color="#FFB800"/>
<stop offset="1" stop-color="#C68F00"/>
</linearGradient>
<linearGradient id="paint1_linear_130_236" x1="26.8849" y1="7.19116" x2="26.8849" y2="11.434" gradientUnits="userSpaceOnUse">
<stop stop-color="#FFB800"/>
<stop offset="1" stop-color="#C68F00"/>
</linearGradient>
<linearGradient id="paint2_linear_130_236" x1="11.6486" y1="9.98059" x2="11.6486" y2="13.1282" gradientUnits="userSpaceOnUse">
<stop stop-color="#FFB800"/>
<stop offset="1" stop-color="#C68F00"/>
</linearGradient>
<linearGradient id="paint3_linear_130_236" x1="6.57045" y1="9.17871" x2="6.57045" y2="12.7039" gradientUnits="userSpaceOnUse">
<stop stop-color="#FFB800"/>
<stop offset="1" stop-color="#C68F00"/>
</linearGradient>
<linearGradient id="paint4_linear_130_236" x1="10.2015" y1="18.21" x2="10.2015" y2="24.568" gradientUnits="userSpaceOnUse">
<stop stop-color="#FFB800"/>
<stop offset="1" stop-color="#C68F00"/>
</linearGradient>
<linearGradient id="paint5_linear_130_236" x1="14.1891" y1="0" x2="14.1891" y2="8.06316" gradientUnits="userSpaceOnUse">
<stop stop-color="#FFB800"/>
<stop offset="1" stop-color="#C68F00"/>
</linearGradient>
<linearGradient id="paint6_linear_130_236" x1="1.49239" y1="7.19116" x2="1.49239" y2="11.4335" gradientUnits="userSpaceOnUse">
<stop stop-color="#FFB800"/>
<stop offset="1" stop-color="#C68F00"/>
</linearGradient>
<linearGradient id="paint7_linear_130_236" x1="1.49239" y1="23.6963" x2="1.49239" y2="27.9386" gradientUnits="userSpaceOnUse">
<stop stop-color="#FFB800"/>
<stop offset="1" stop-color="#C68F00"/>
</linearGradient>
<linearGradient id="paint8_linear_130_236" x1="26.8794" y1="18.0699" x2="26.8794" y2="21.5898" gradientUnits="userSpaceOnUse">
<stop stop-color="#FFB800"/>
<stop offset="1" stop-color="#C68F00"/>
</linearGradient>
<linearGradient id="paint9_linear_130_236" x1="26.3557" y1="24.4003" x2="26.3557" y2="27.9381" gradientUnits="userSpaceOnUse">
<stop stop-color="#FFB800"/>
<stop offset="1" stop-color="#C68F00"/>
</linearGradient>
<linearGradient id="paint10_linear_130_236" x1="19.7611" y1="10.4681" x2="19.7611" y2="16.9504" gradientUnits="userSpaceOnUse">
<stop stop-color="#FFB800"/>
<stop offset="1" stop-color="#C68F00"/>
</linearGradient>
<linearGradient id="paint11_linear_130_236" x1="21.8068" y1="18.8694" x2="21.8068" y2="22.0165" gradientUnits="userSpaceOnUse">
<stop stop-color="#FFB800"/>
<stop offset="1" stop-color="#C68F00"/>
</linearGradient>
<linearGradient id="paint12_linear_130_236" x1="11.6496" y1="18.0662" x2="11.6496" y2="21.5912" gradientUnits="userSpaceOnUse">
<stop stop-color="#FFB800"/>
<stop offset="1" stop-color="#C68F00"/>
</linearGradient>
<linearGradient id="paint13_linear_130_236" x1="6.57045" y1="16.0784" x2="6.57045" y2="20.3212" gradientUnits="userSpaceOnUse">
<stop stop-color="#FFB800"/>
<stop offset="1" stop-color="#C68F00"/>
</linearGradient>
<linearGradient id="paint14_linear_130_236" x1="16.7267" y1="18.868" x2="16.7267" y2="22.0157" gradientUnits="userSpaceOnUse">
<stop stop-color="#FFB800"/>
<stop offset="1" stop-color="#C68F00"/>
</linearGradient>
<linearGradient id="paint15_linear_130_236" x1="21.8059" y1="9.17883" x2="21.8059" y2="12.7038" gradientUnits="userSpaceOnUse">
<stop stop-color="#FFB800"/>
<stop offset="1" stop-color="#C68F00"/>
</linearGradient>
<linearGradient id="paint16_linear_130_236" x1="17.8963" y1="29.1085" x2="17.8963" y2="33.4555" gradientUnits="userSpaceOnUse">
<stop stop-color="#FFB800"/>
<stop offset="1" stop-color="#C68F00"/>
</linearGradient>
<linearGradient id="paint17_linear_130_236" x1="26.8849" y1="34.5702" x2="26.8849" y2="38.0999" gradientUnits="userSpaceOnUse">
<stop stop-color="#FFB800"/>
<stop offset="1" stop-color="#C68F00"/>
</linearGradient>
<linearGradient id="paint18_linear_130_236" x1="21.8069" y1="35.3712" x2="21.8069" y2="38.5211" gradientUnits="userSpaceOnUse">
<stop stop-color="#FFB800"/>
<stop offset="1" stop-color="#C68F00"/>
</linearGradient>
<linearGradient id="paint19_linear_130_236" x1="31.2761" y1="34.2433" x2="31.2761" y2="36.8225" gradientUnits="userSpaceOnUse">
<stop stop-color="#FFB800"/>
<stop offset="1" stop-color="#C68F00"/>
</linearGradient>
<linearGradient id="paint20_linear_130_236" x1="43.3895" y1="15.2354" x2="43.3895" y2="33.4557" gradientUnits="userSpaceOnUse">
<stop stop-color="#FFB800"/>
<stop offset="1" stop-color="#C68F00"/>
</linearGradient>
<linearGradient id="paint21_linear_130_236" x1="43.3896" y1="10.1565" x2="43.3896" y2="38.5286" gradientUnits="userSpaceOnUse">
<stop stop-color="#FFB800"/>
<stop offset="1" stop-color="#C68F00"/>
</linearGradient>
<linearGradient id="paint22_linear_130_236" x1="43.4931" y1="20.9519" x2="43.4931" y2="27.8237" gradientUnits="userSpaceOnUse">
<stop stop-color="#FFB800"/>
<stop offset="1" stop-color="#C68F00"/>
</linearGradient>
<linearGradient id="paint23_linear_130_236" x1="21.8059" y1="25.6898" x2="21.8059" y2="29.1992" gradientUnits="userSpaceOnUse">
<stop stop-color="#FFB800"/>
<stop offset="1" stop-color="#C68F00"/>
</linearGradient>
<linearGradient id="paint24_linear_130_236" x1="11.6477" y1="26.4857" x2="11.6477" y2="29.6333" gradientUnits="userSpaceOnUse">
<stop stop-color="#FFB800"/>
<stop offset="1" stop-color="#C68F00"/>
</linearGradient>
<linearGradient id="paint25_linear_130_236" x1="6.57045" y1="25.684" x2="6.57045" y2="29.2091" gradientUnits="userSpaceOnUse">
<stop stop-color="#FFB800"/>
<stop offset="1" stop-color="#C68F00"/>
</linearGradient>
<linearGradient id="paint26_linear_130_236" x1="16.7285" y1="26.4884" x2="16.7285" y2="29.6335" gradientUnits="userSpaceOnUse">
<stop stop-color="#FFB800"/>
<stop offset="1" stop-color="#C68F00"/>
</linearGradient>
<linearGradient id="paint27_linear_130_236" x1="6.57045" y1="32.583" x2="6.57045" y2="36.8259" gradientUnits="userSpaceOnUse">
<stop stop-color="#FFB800"/>
<stop offset="1" stop-color="#C68F00"/>
</linearGradient>
<linearGradient id="paint28_linear_130_236" x1="16.7267" y1="35.373" x2="16.7267" y2="38.5206" gradientUnits="userSpaceOnUse">
<stop stop-color="#FFB800"/>
<stop offset="1" stop-color="#C68F00"/>
</linearGradient>
<linearGradient id="paint29_linear_130_236" x1="11.6496" y1="34.5712" x2="11.6496" y2="38.0963" gradientUnits="userSpaceOnUse">
<stop stop-color="#FFB800"/>
<stop offset="1" stop-color="#C68F00"/>
</linearGradient>
</defs>
</svg>
