<svg width="55" height="59" viewBox="0 0 55 59" fill="none" xmlns="http://www.w3.org/2000/svg">
<path fill-rule="evenodd" clip-rule="evenodd" d="M4.1875 10.1882V6.28125C4.1875 4.61462 4.84912 3.01709 6.0279 1.8404C7.20459 0.66162 8.80212 0 10.4688 0H43.9688C45.6354 0 47.2329 0.66162 48.4096 1.8404C49.5884 3.01709 50.25 4.61462 50.25 6.28125V10.1882L54.3307 22.4199C54.4019 22.6335 54.4375 22.8554 54.4375 23.0815C54.4375 26.9843 51.768 30.2631 48.1562 31.1927V52.394C48.1562 54.0606 47.4946 55.6582 46.3158 56.8349C45.1392 58.0136 43.5416 58.6753 41.875 58.6753H35.5938V44.0713C35.5938 41.852 34.7123 39.7226 33.142 38.1523C31.5716 36.582 29.4423 35.7005 27.2229 35.7005C27.2208 35.7005 27.2167 35.7005 27.2146 35.7005C22.5916 35.7005 18.8438 39.4483 18.8438 44.0713V58.6753H12.5625C10.8959 58.6753 9.29834 58.0136 8.12165 56.8349C6.94287 55.6582 6.28125 54.0606 6.28125 52.394V31.1927C2.66953 30.2631 0 26.9843 0 23.0815C0 22.8554 0.035583 22.6335 0.106771 22.4199L4.1875 10.1882ZM46.6446 12.6128H7.79294L4.20006 23.3851C4.35499 25.5563 6.164 27.269 8.375 27.269C10.6886 27.269 12.5625 25.3951 12.5625 23.0815C12.5625 21.9258 13.5005 20.9878 14.6562 20.9878C15.812 20.9878 16.75 21.9258 16.75 23.0815C16.75 25.3951 18.6239 27.269 20.9375 27.269C23.1548 27.269 24.968 25.5479 25.1145 23.3683C25.1899 22.267 26.1049 21.4128 27.2083 21.4149C27.2083 21.4149 27.2229 21.4149 27.2166 21.4149H27.2313C28.3326 21.4149 29.2476 22.2691 29.323 23.3683C29.4695 25.5479 31.2827 27.269 33.5 27.269C35.8136 27.269 37.6875 25.3951 37.6875 23.0815C37.6875 21.9258 38.6255 20.9878 39.7812 20.9878C40.937 20.9878 41.875 21.9258 41.875 23.0815C41.875 25.3951 43.7489 27.269 46.0625 27.269C48.2735 27.269 50.0825 25.5563 50.2374 23.3851L46.6446 12.6128Z" fill="url(#paint0_linear_130_233)"/>
<defs>
<linearGradient id="paint0_linear_130_233" x1="27.2188" y1="0" x2="27.2188" y2="58.6753" gradientUnits="userSpaceOnUse">
<stop stop-color="#FFB800"/>
<stop offset="1" stop-color="#C68F00"/>
</linearGradient>
</defs>
</svg>
