<svg width="67" height="51" viewBox="0 0 67 51" fill="none" xmlns="http://www.w3.org/2000/svg">
<path d="M62.7125 16.7513C59.698 16.82 57.7418 19.9829 59.019 22.7095C56.7224 24.658 53.519 26.6628 51.8047 26.2348C51.6359 26.193 50.7801 25.133 50.7735 21.1117C50.7709 19.4681 50.9123 17.8376 51.0444 16.6742C53.1214 16.2746 54.6552 14.336 54.4122 12.0968C54.1675 9.84166 52.2045 8.22672 49.9417 8.38585C46.847 8.60347 45.0348 12.0736 46.6801 14.748C45.1033 17.0982 42.6274 19.8175 40.8974 19.8895C40.6789 19.7665 39.28 18.7798 37.3996 12.9186C36.684 10.6868 35.9352 7.64453 35.9352 7.59127C37.0633 6.78465 37.7728 5.43104 37.6792 3.9217C37.5504 1.84522 35.8743 0.155301 33.7988 0.0105699C31.3546 -0.15994 29.3126 1.77901 29.3126 4.18761C29.3126 5.58912 30.0035 6.83228 31.0648 7.59127C31.0648 7.63511 30.4004 10.4242 29.6005 12.9186C27.72 18.7798 26.3211 19.7665 26.1026 19.8895C24.3726 19.8175 21.8954 17.0969 20.3199 14.748C21.9645 12.0747 20.1541 8.60425 17.0595 8.38598C14.7966 8.22633 12.8328 9.84101 12.5879 12.0964C12.3448 14.3358 13.8786 16.2746 15.9557 16.6742C16.0879 17.8376 16.2292 19.4681 16.2266 21.1117C16.2201 25.133 15.3642 26.193 15.1954 26.2348C13.4812 26.6641 10.2777 24.658 7.98114 22.7095C9.25833 19.9832 7.30106 16.8196 4.2871 16.7513C2.08382 16.7013 0.186481 18.4024 0.0133538 20.5994C-0.175346 22.9932 1.65996 25.0113 3.98861 25.1199C5.02017 27.0877 7.25238 31.673 8.80778 37.2076C8.88734 37.4907 9.14395 37.6877 9.43813 37.6877H57.5619C57.8561 37.6877 58.1127 37.4907 58.1922 37.2076C59.7478 31.6718 61.9812 27.0877 63.0127 25.1199C65.3398 25.01 67.1752 22.9936 66.9867 20.5998C66.8138 18.4024 64.9161 16.7011 62.7125 16.7513ZM33.5001 34.547C31.6222 34.547 30.3594 32.6535 30.3594 29.8361C30.3594 27.0187 31.6222 25.1252 33.5001 25.1252C35.3779 25.1252 36.6407 27.0187 36.6407 29.8361C36.6407 32.6535 35.3779 34.547 33.5001 34.547Z" fill="url(#paint0_linear_178_25)"/>
<path d="M10.0102 42.6316C10.2985 44.4462 10.4688 46.3016 10.4692 48.15C10.4694 49.307 11.3945 50.2503 12.5515 50.2503H54.4494C55.6064 50.2503 56.5315 49.307 56.5318 48.15C56.5322 46.3017 56.7025 44.4464 56.9907 42.6316C57.0538 42.2345 56.7474 41.8752 56.3453 41.8752H10.6556C10.2535 41.8752 9.94703 42.2345 10.0102 42.6316Z" fill="url(#paint1_linear_178_25)"/>
<defs>
<linearGradient id="paint0_linear_178_25" x1="33.5" y1="0.00012207" x2="33.5" y2="37.6877" gradientUnits="userSpaceOnUse">
<stop stop-color="#FFB800"/>
<stop offset="1" stop-color="#C68F00"/>
</linearGradient>
<linearGradient id="paint1_linear_178_25" x1="33.5004" y1="41.8752" x2="33.5004" y2="50.2503" gradientUnits="userSpaceOnUse">
<stop stop-color="#FFB800"/>
<stop offset="1" stop-color="#C68F00"/>
</linearGradient>
</defs>
</svg>
