<svg width="83" height="132" viewBox="0 0 83 132" fill="none" xmlns="http://www.w3.org/2000/svg">
<path d="M77.0001 116.006V95.2326C77.0001 88.0992 73.92 81.3066 68.5467 76.6041L56.4246 66L68.5467 55.3959C73.9203 50.6934 77.0001 43.9008 77.0001 36.7674V15.9939C80.1954 14.8554 82.5 11.8305 82.5 8.25C82.5 3.70141 78.7986 0 74.25 0H8.25C3.70141 0 0 3.70141 0 8.25C0 11.8305 2.30459 14.8554 5.49991 15.9939V36.7674C5.49991 43.9008 8.58 50.6934 13.9533 55.3959L26.0754 66L13.9533 76.6041C8.57974 81.3066 5.49991 88.0992 5.49991 95.2326V116.006C2.30459 117.145 0 120.17 0 123.75C0 128.299 3.70141 132 8.25 132H74.25C78.7986 132 82.5 128.299 82.5 123.75C82.5 120.17 80.1954 117.145 77.0001 116.006ZM71.4999 115.5H11.0001V95.2326C11.0001 89.6832 13.398 84.4032 17.5725 80.7456L32.0595 68.0682C32.6589 67.5456 33 66.7923 33 66.0003C33 65.2083 32.6589 64.4547 32.0595 63.9323L17.5725 51.2549C13.398 47.5973 11.0001 42.3173 11.0001 36.7679V16.5H71.5002V36.7674C71.5002 42.3168 69.1023 47.5968 64.9278 51.2544L50.4408 63.9318C49.8411 64.4544 49.5 65.208 49.5 66C49.5 66.792 49.8411 67.5456 50.4405 68.0679L64.9275 80.7453C69.1074 84.4029 71.4999 89.6829 71.4999 95.2323V115.5Z" fill="url(#paint0_linear_134_4779)"/>
<path d="M65.4003 105.534L43.4004 78.0339C42.3555 76.7304 40.1499 76.7304 39.105 78.0339L17.1051 105.534C16.4451 106.359 16.3185 107.492 16.7751 108.443C17.2317 109.395 18.1941 110 19.2501 110H63.2502C64.3062 110 65.2686 109.395 65.7306 108.443C66.1866 107.492 66.0603 106.359 65.4003 105.534Z" fill="url(#paint1_linear_134_4779)"/>
<path d="M54.7914 45.6995C54.3678 44.6711 53.3613 44 52.2504 44H30.2505C29.1396 44 28.1331 44.6711 27.7095 45.6995C27.2805 46.7279 27.5169 47.9051 28.3035 48.6971L39.3036 59.6972C39.8427 60.2306 40.5465 60.5003 41.2506 60.5003C41.9547 60.5003 42.6585 60.2308 43.1976 59.6972L54.1977 48.6971C54.9838 47.9105 55.2204 46.7279 54.7914 45.6995Z" fill="url(#paint2_linear_134_4779)"/>
<defs>
<linearGradient id="paint0_linear_134_4779" x1="41.25" y1="0" x2="41.25" y2="132" gradientUnits="userSpaceOnUse">
<stop stop-color="#FFB800"/>
<stop offset="1" stop-color="#C68F00"/>
</linearGradient>
<linearGradient id="paint1_linear_134_4779" x1="41.2527" y1="77.0563" x2="41.2527" y2="110" gradientUnits="userSpaceOnUse">
<stop stop-color="#FFB800"/>
<stop offset="1" stop-color="#C68F00"/>
</linearGradient>
<linearGradient id="paint2_linear_134_4779" x1="41.2504" y1="44" x2="41.2504" y2="60.5003" gradientUnits="userSpaceOnUse">
<stop stop-color="#FFB800"/>
<stop offset="1" stop-color="#C68F00"/>
</linearGradient>
</defs>
</svg>
