<svg width="29" height="24" viewBox="0 0 29 24" fill="none" xmlns="http://www.w3.org/2000/svg">
<path d="M28.3828 3.02374C27.3551 3.50288 26.2653 3.81767 25.1495 3.95771C26.3272 3.21578 27.2091 2.04803 27.631 0.671769C26.5254 1.36426 25.3153 1.85193 24.0535 2.11363C23.2055 1.15758 22.0818 0.523595 20.8568 0.310195C19.6319 0.0967952 18.3744 0.315932 17.2798 0.933552C16.1852 1.55117 15.3147 2.53268 14.8037 3.72555C14.2927 4.91842 14.1698 6.25584 14.454 7.52997C12.2129 7.41207 10.0204 6.79869 8.01879 5.72963C6.01716 4.66057 4.25113 3.15973 2.83531 1.32452C2.11525 2.63227 1.89465 4.18005 2.21837 5.65315C2.54209 7.12625 3.38583 8.41406 4.57803 9.25475C3.68367 9.2249 2.80903 8.97013 2.027 8.51166V8.58495C2.02762 9.9574 2.4788 11.2873 3.30391 12.3489C4.12903 13.4105 5.27723 14.1382 6.55354 14.4086C5.72367 14.6456 4.85355 14.6806 4.00898 14.5109C4.36776 15.6902 5.06695 16.7219 6.00889 17.462C6.95084 18.202 8.0885 18.6134 9.263 18.6388C6.90223 20.5919 3.90224 21.4766 0.922852 21.0981C3.49834 22.8446 6.49658 23.7718 9.55884 23.7688C11.6683 23.7842 13.7596 23.3575 15.7113 22.5136C17.663 21.6696 19.4361 20.4253 20.9278 18.8527C22.4194 17.2801 23.5998 15.4108 24.4003 13.3532C25.2008 11.2956 25.6055 9.09086 25.5909 6.86699C25.5909 6.61134 25.5909 6.35569 25.5731 6.10004C26.6756 5.26157 27.6275 4.22275 28.3844 3.03226L28.3828 3.02374Z" fill="white"/>
</svg>
