<svg width="704" height="790" viewBox="0 0 704 790" fill="none" xmlns="http://www.w3.org/2000/svg">
<g opacity="0.03">
<path d="M313.777 789.085C243.244 748.133 177.234 709.457 111.223 670.781C85.4521 655.766 59.2287 640.295 33.4575 624.825C10.8511 611.174 0 592.063 0 564.762C0.904256 501.97 0.904256 439.178 0 376.385C0 348.63 11.7553 329.064 35.266 315.413C96.3032 279.923 157.341 244.432 218.377 208.485C228.325 202.57 235.559 202.57 245.054 208.485C264.042 220.316 283.484 231.236 304.734 243.521C262.234 268.547 221.543 292.663 180.399 316.324C151.463 333.614 122.075 350.449 92.6862 367.285C79.5745 374.566 73.2447 384.576 73.6968 400.047C74.1489 446.913 74.1489 493.779 73.6968 541.101C73.2447 557.481 80.4788 567.492 94.4947 575.227C162.313 614.358 229.681 654.401 297.5 693.076C310.612 700.357 315.585 708.547 314.68 723.563C312.872 744.038 313.777 764.513 313.777 789.085Z" fill="#FFB800"/>
<path d="M646.996 163.892C688.139 179.363 705.772 207.574 703.511 253.075C700.798 310.407 702.608 368.194 703.06 425.526C703.06 451.462 693.565 471.027 671.41 484.222C580.081 537.915 488.299 591.607 396.969 644.844C395.613 645.298 394.257 645.298 389.734 645.298C389.734 619.817 389.734 594.792 389.734 569.311C389.734 558.845 399.682 556.57 406.463 552.931C472.475 513.799 538.937 475.122 605.4 436.901C614.442 431.441 623.485 426.436 629.362 416.88C634.788 410.055 631.624 402.32 631.624 395.039C632.075 324.513 632.075 254.44 631.624 183.913C630.719 172.538 632.527 163.438 646.996 163.892Z" fill="white"/>
<path d="M0.455409 279.921C0.455409 265.361 1.35966 253.987 0.455409 242.611C-2.25736 209.395 12.2107 187.099 41.147 170.718C92.2374 142.052 142.876 112.021 193.062 81.5353C218.833 66.0647 243.7 65.6098 269.472 81.0803C328.248 115.661 387.477 150.698 446.706 184.824C458.461 191.649 463.886 199.384 462.982 213.49C461.625 234.42 462.53 255.806 462.53 280.377C419.126 255.352 377.982 231.69 336.839 207.575C310.163 192.104 283.035 177.088 257.264 160.253C239.179 148.423 224.258 148.877 205.722 160.253C141.519 199.384 76.4128 236.695 11.3065 274.917C8.59371 276.282 5.88094 277.647 0.455409 279.921Z" fill="white"/>
<path d="M510.457 177.999C505.483 166.169 495.536 159.799 485.138 153.883C416.866 114.297 349.047 74.2558 280.775 34.2144C331.415 -8.55703 354.472 -9.92208 408.728 22.839C454.393 50.595 500.51 76.9859 546.627 104.287C562.451 113.842 576.467 124.763 578.728 144.783C578.728 228.051 579.18 311.319 578.728 394.587C561.546 410.058 540.297 419.613 519.952 430.078C510.004 425.073 513.621 415.518 513.621 407.782C513.17 338.165 513.621 268.547 513.17 199.385C513.621 192.559 517.239 184.369 510.457 177.999Z" fill="#FFB800"/>
<path d="M389.276 789.993C389.276 761.328 389.276 738.123 389.276 714.917C389.276 707.182 391.537 702.631 398.32 698.536C498.692 639.838 599.064 581.142 701.697 521.08C701.697 543.376 702.601 562.487 701.245 581.596C700.34 597.523 692.202 610.718 678.639 618.908C583.692 675.33 488.745 731.297 389.276 789.993Z" fill="#FFB800"/>
<path d="M121.167 469.662C121.167 468.297 121.167 466.477 121.167 465.112C121.167 399.59 121.167 400.044 180.395 370.924C192.151 365.008 194.411 367.738 193.959 379.57C193.507 410.511 194.864 441.906 193.507 472.848C192.603 489.227 198.933 497.418 212.496 504.698C242.337 520.624 270.821 538.825 300.662 555.66C310.156 561.12 315.13 567.036 314.225 578.866C313.321 597.977 313.773 616.632 314.225 635.743C314.225 647.573 310.609 648.028 301.114 642.568C245.502 609.807 189.438 577.046 133.374 544.739C124.784 539.734 120.715 533.365 121.167 522.9C121.619 504.698 121.167 486.953 121.167 469.662Z" fill="white"/>
</g>
</svg>
